<svg width="549" height="151" viewBox="0 0 549 151" fill="none" xmlns="http://www.w3.org/2000/svg">
<path d="M509.139 89.2762L509.252 86.3486C509.252 84.6971 508.239 83.4585 506.212 82.6328C506.137 83.0081 505.912 83.1958 505.536 83.1958C505.912 84.6971 506.737 86.4987 508.013 88.6006V89.1636L509.139 89.2762ZM506.212 81.0564V80.4934C506.212 79.1422 506.024 77.0028 505.649 74.0752H505.086L504.973 75.0886C505.424 78.3915 505.649 80.3432 505.649 80.9438V81.0564H506.212ZM501.595 62.8152V61.8018C500.845 61.8018 500.469 62.1021 500.469 62.7026L501.595 62.8152ZM522.877 54.3703V53.8073L517.697 51.3301C517.697 51.9306 519.236 52.944 522.314 54.3703H522.877ZM517.134 51.3301L517.247 50.7671H516.121L516.008 51.3301H517.134ZM504.185 43.6733V42.6599H503.622V43.6733H504.185ZM503.735 41.5339L503.847 39.9575H503.397L503.284 41.5339H503.735ZM502.158 40.8583L502.271 39.2819H501.708L501.595 40.8583H502.158ZM496.866 29.8235L496.979 28.8102H496.416L496.303 29.8235H496.866ZM496.416 28.2472V27.1212H495.853V28.2472H496.416ZM495.965 25.5448L496.078 24.5314H495.627L495.515 25.5448H495.965ZM511.504 43.2229C521.113 33.6144 525.954 28.2847 526.029 27.2338H525.466C522.163 24.3812 515.37 21.3786 505.086 18.2258H504.523C504.523 19.2016 505.424 20.8531 507.225 23.1802C507.225 24.0059 506.625 25.77 505.424 28.4724C507.15 37.5554 508.239 42.0969 508.689 42.0969C509.139 42.0969 509.74 42.4722 510.491 43.2229H511.504ZM505.761 91.1903H504.748L504.298 87.4746L505.086 84.2092H504.523L504.41 85.3352L503.284 85.2226L503.059 82.5202H503.509L504.523 83.1958C504.523 82.0698 504.185 81.4692 503.509 81.3942C503.509 81.7695 503.359 81.9572 503.059 81.9572L502.496 80.9438C502.571 80.1931 502.796 79.8178 503.172 79.8178C502.496 78.0913 502.158 72.6114 502.158 63.3782H501.032L501.37 66.0806L500.244 65.968L500.357 63.8286H499.343L497.091 65.8554L496.641 64.7294L497.204 63.716C496.904 63.0404 496.753 62.3273 496.753 61.5766L499.681 58.9869C499.381 58.011 499.118 55.8716 498.893 52.5687H499.456L498.893 51.4427C498.968 50.692 499.193 49.9789 499.568 49.3033C498.593 49.2282 497.842 46.3382 497.316 40.6331C497.767 39.9575 497.992 39.432 497.992 39.0567C496.416 36.6546 494.689 28.3222 492.812 14.0596L492.925 13.6092C493.601 13.6843 493.938 13.8344 493.938 14.0596C494.464 13.9095 495.215 13.8344 496.19 13.8344V12.7084C494.464 12.6333 493.601 12.1079 493.601 11.132C493.601 10.3063 495.29 8.91755 498.668 6.96582C498.668 8.24195 501.783 9.81834 508.013 11.695C521.751 19.7271 529.107 23.7807 530.083 23.8558C533.536 19.4268 535.45 17.2124 535.826 17.2124L536.952 17.888V16.8746C537.627 16.9497 537.965 17.2875 537.965 17.888C537.515 17.888 536.651 18.5636 535.375 19.9148C535.375 20.9657 535.713 21.4912 536.389 21.4912C536.839 21.7164 537.064 21.9791 537.064 22.2794C537.064 22.5046 536.914 22.7673 536.614 23.0676V23.6306L538.19 23.7432L535.263 26.2204C536.914 26.6708 538.866 27.8718 541.118 29.8235V30.9495C540.217 30.9495 539.279 31.3999 538.303 32.3007L530.871 29.7109C522.464 39.0192 517.772 44.7993 516.796 47.0513H517.359C524.491 50.3542 530.045 54.3703 534.024 59.0995C537.177 60.6008 539.053 61.9144 539.654 63.0404H538.641L548.662 72.9492C548.587 73.5497 548.212 73.85 547.536 73.85C542.657 70.7723 537.064 66.3058 530.759 60.4506L528.732 59.3246C528.657 59.9252 528.281 60.2254 527.606 60.2254C527.606 59.0244 527.493 58.4239 527.268 58.4239C527.043 58.4239 526.705 58.9493 526.255 60.0002C526.855 62.7777 532.86 67.5444 544.271 74.3004C544.571 75.8017 544.758 77.3406 544.834 78.917C539.579 77.3406 529.558 69.8715 514.769 56.5097C514.319 56.5097 512.93 55.7215 510.603 54.1451L509.252 58.9869L511.054 71.7106C511.654 72.9117 511.954 74.1878 511.954 75.539L511.729 80.2682L510.603 80.1556C512.48 85.3352 513.418 88.2628 513.418 88.9384L512.292 89.3888C512.292 88.8633 511.617 88.1126 510.265 87.1368C510.19 87.5121 509.965 87.6998 509.59 87.6998L510.153 88.7132C510.153 89.2386 509.59 89.7641 508.464 90.2896L508.013 89.1636H507.45C506.775 88.7882 506.249 88.563 505.874 88.488L506.324 89.7266C505.949 90.3271 505.761 90.815 505.761 91.1903ZM515.783 73.0618L514.657 72.9492L514.769 71.2602L515.895 71.3728L515.783 73.0618ZM540.78 64.1664C540.029 64.0914 539.654 63.716 539.654 63.0404L540.78 63.153V64.1664Z" fill="white"/>
<path d="M447.882 89.2762L447.994 86.3486C447.994 84.6971 446.981 83.4585 444.954 82.6328C444.879 83.0081 444.654 83.1958 444.278 83.1958C444.654 84.6971 445.48 86.4987 446.756 88.6006V89.1636L447.882 89.2762ZM444.954 81.0564V80.4934C444.954 79.1422 444.766 77.0028 444.391 74.0752H443.828L443.715 75.0886C444.166 78.3915 444.391 80.3432 444.391 80.9438V81.0564H444.954ZM440.337 62.8152V61.8018C439.587 61.8018 439.211 62.1021 439.211 62.7026L440.337 62.8152ZM461.619 54.3703V53.8073L456.439 51.3301C456.439 51.9306 457.978 52.944 461.056 54.3703H461.619ZM455.876 51.3301L455.989 50.7671H454.863L454.75 51.3301H455.876ZM442.927 43.6733V42.6599H442.364V43.6733H442.927ZM442.477 41.5339L442.589 39.9575H442.139L442.026 41.5339H442.477ZM440.9 40.8583L441.013 39.2819H440.45L440.337 40.8583H440.9ZM435.608 29.8235L435.721 28.8102H435.158L435.045 29.8235H435.608ZM435.158 28.2472V27.1212H434.595V28.2472H435.158ZM434.707 25.5448L434.82 24.5314H434.37L434.257 25.5448H434.707ZM450.246 43.2229C459.855 33.6144 464.697 28.2847 464.772 27.2338H464.209C460.906 24.3812 454.112 21.3786 443.828 18.2258H443.265C443.265 19.2016 444.166 20.8531 445.967 23.1802C445.967 24.0059 445.367 25.77 444.166 28.4724C445.892 37.5554 446.981 42.0969 447.431 42.0969C447.882 42.0969 448.482 42.4722 449.233 43.2229H450.246ZM444.504 91.1903H443.49L443.04 87.4746L443.828 84.2092H443.265L443.152 85.3352L442.026 85.2226L441.801 82.5202H442.252L443.265 83.1958C443.265 82.0698 442.927 81.4692 442.252 81.3942C442.252 81.7695 442.102 81.9572 441.801 81.9572L441.238 80.9438C441.313 80.1931 441.539 79.8178 441.914 79.8178C441.238 78.0913 440.9 72.6114 440.9 63.3782H439.774L440.112 66.0806L438.986 65.968L439.099 63.8286H438.085L435.833 65.8554L435.383 64.7294L435.946 63.716C435.646 63.0404 435.496 62.3273 435.496 61.5766L438.423 58.9869C438.123 58.011 437.86 55.8716 437.635 52.5687H438.198L437.635 51.4427C437.71 50.692 437.935 49.9789 438.311 49.3033C437.335 49.2282 436.584 46.3382 436.059 40.6331C436.509 39.9575 436.734 39.432 436.734 39.0567C435.158 36.6546 433.431 28.3222 431.555 14.0596L431.667 13.6092C432.343 13.6843 432.681 13.8344 432.681 14.0596C433.206 13.9095 433.957 13.8344 434.933 13.8344V12.7084C433.206 12.6333 432.343 12.1079 432.343 11.132C432.343 10.3063 434.032 8.91755 437.41 6.96582C437.41 8.24195 440.525 9.81834 446.756 11.695C460.493 19.7271 467.849 23.7807 468.825 23.8558C472.278 19.4268 474.192 17.2124 474.568 17.2124L475.694 17.888V16.8746C476.369 16.9497 476.707 17.2875 476.707 17.888C476.257 17.888 475.393 18.5636 474.117 19.9148C474.117 20.9657 474.455 21.4912 475.131 21.4912C475.581 21.7164 475.806 21.9791 475.806 22.2794C475.806 22.5046 475.656 22.7673 475.356 23.0676V23.6306L476.932 23.7432L474.005 26.2204C475.656 26.6708 477.608 27.8718 479.86 29.8235V30.9495C478.959 30.9495 478.021 31.3999 477.045 32.3007L469.613 29.7109C461.206 39.0192 456.514 44.7993 455.538 47.0513H456.101C463.233 50.3542 468.788 54.3703 472.766 59.0995C475.919 60.6008 477.796 61.9144 478.396 63.0404H477.383L487.404 72.9492C487.329 73.5497 486.954 73.85 486.278 73.85C481.399 70.7723 475.806 66.3058 469.501 60.4506L467.474 59.3246C467.399 59.9252 467.024 60.2254 466.348 60.2254C466.348 59.0244 466.235 58.4239 466.01 58.4239C465.785 58.4239 465.447 58.9493 464.997 60.0002C465.597 62.7777 471.603 67.5444 483.013 74.3004C483.313 75.8017 483.501 77.3406 483.576 78.917C478.321 77.3406 468.3 69.8715 453.512 56.5097C453.061 56.5097 451.672 55.7215 449.345 54.1451L447.994 58.9869L449.796 71.7106C450.396 72.9117 450.697 74.1878 450.697 75.539L450.471 80.2682L449.345 80.1556C451.222 85.3352 452.16 88.2628 452.16 88.9384L451.034 89.3888C451.034 88.8633 450.359 88.1126 449.008 87.1368C448.933 87.5121 448.707 87.6998 448.332 87.6998L448.895 88.7132C448.895 89.2386 448.332 89.7641 447.206 90.2896L446.756 89.1636H446.193C445.517 88.7882 444.992 88.563 444.616 88.488L445.067 89.7266C444.691 90.3271 444.504 90.815 444.504 91.1903ZM454.525 73.0618L453.399 72.9492L453.512 71.2602L454.638 71.3728L454.525 73.0618ZM479.522 64.1664C478.771 64.0914 478.396 63.716 478.396 63.0404L479.522 63.153V64.1664Z" fill="white"/>
<path d="M386.632 89.2791L386.744 86.3515C386.744 84.7 385.731 83.4614 383.704 82.6357C383.629 83.011 383.404 83.1987 383.028 83.1987C383.404 84.7 384.23 86.5016 385.506 88.6035V89.1665L386.632 89.2791ZM383.704 81.0593V80.4963C383.704 79.1451 383.516 77.0057 383.141 74.0781H382.578L382.465 75.0915C382.916 78.3945 383.141 80.3462 383.141 80.9467V81.0593H383.704ZM379.087 62.8182V61.8048C378.337 61.8048 377.961 62.105 377.961 62.7056L379.087 62.8182ZM400.369 54.3732V53.8102L395.189 51.333C395.189 51.9335 396.728 52.9469 399.806 54.3732H400.369ZM394.626 51.333L394.739 50.77H393.613L393.5 51.333H394.626ZM381.677 43.6762V42.6628H381.114V43.6762H381.677ZM381.227 41.5368L381.339 39.9604H380.889L380.776 41.5368H381.227ZM379.65 40.8612L379.763 39.2848H379.2L379.087 40.8612H379.65ZM374.358 29.8265L374.471 28.8131H373.908L373.795 29.8265H374.358ZM373.908 28.2501V27.1241H373.345V28.2501H373.908ZM373.457 25.5477L373.57 24.5343H373.12L373.007 25.5477H373.457ZM388.996 43.2258C398.605 33.6173 403.447 28.2876 403.522 27.2367H402.959C399.656 24.3842 392.862 21.3815 382.578 18.2287H382.015C382.015 19.2046 382.916 20.856 384.717 23.1831C384.717 24.0088 384.117 25.7729 382.916 28.4753C384.642 37.5583 385.731 42.0998 386.181 42.0998C386.632 42.0998 387.232 42.4752 387.983 43.2258H388.996ZM383.254 91.1933H382.24L381.79 87.4775L382.578 84.2121H382.015L381.902 85.3381L380.776 85.2255L380.551 82.5231H381.002L382.015 83.1987C382.015 82.0727 381.677 81.4722 381.002 81.3971C381.002 81.7724 380.852 81.9601 380.551 81.9601L379.988 80.9467C380.063 80.196 380.289 79.8207 380.664 79.8207C379.988 78.0942 379.65 72.6143 379.65 63.3812H378.524L378.862 66.0836L377.736 65.971L377.849 63.8316H376.835L374.583 65.8584L374.133 64.7324L374.696 63.719C374.396 63.0434 374.246 62.3302 374.246 61.5796L377.173 58.9898C376.873 58.0139 376.61 55.8745 376.385 52.5716H376.948L376.385 51.4456C376.46 50.6949 376.685 49.9818 377.061 49.3062C376.085 49.2311 375.334 46.3411 374.809 40.636C375.259 39.9604 375.484 39.435 375.484 39.0596C373.908 36.6575 372.181 28.3251 370.305 14.0625L370.417 13.6121C371.093 13.6872 371.431 13.8373 371.431 14.0625C371.956 13.9124 372.707 13.8373 373.683 13.8373V12.7113C371.956 12.6363 371.093 12.1108 371.093 11.1349C371.093 10.3092 372.782 8.92048 376.16 6.96875C376.16 8.24488 379.275 9.82127 385.506 11.6979C399.243 19.73 406.599 23.7836 407.575 23.8587C411.028 19.4298 412.942 17.2153 413.318 17.2153L414.444 17.8909V16.8775C415.119 16.9526 415.457 17.2904 415.457 17.8909C415.007 17.8909 414.143 18.5665 412.867 19.9177C412.867 20.9686 413.205 21.4941 413.881 21.4941C414.331 21.7193 414.556 21.982 414.556 22.2823C414.556 22.5075 414.406 22.7702 414.106 23.0705V23.6335L415.682 23.7461L412.755 26.2233C414.406 26.6737 416.358 27.8747 418.61 29.8265V30.9525C417.709 30.9525 416.771 31.4029 415.795 32.3037L408.363 29.7139C399.956 39.0221 395.264 44.8022 394.288 47.0542H394.851C401.983 50.3571 407.538 54.3732 411.516 59.1024C414.669 60.6037 416.546 61.9174 417.146 63.0434H416.133L426.154 72.9521C426.079 73.5527 425.704 73.8529 425.028 73.8529C420.149 70.7752 414.556 66.3088 408.251 60.4536L406.224 59.3276C406.149 59.9281 405.774 60.2284 405.098 60.2284C405.098 59.0273 404.985 58.4268 404.76 58.4268C404.535 58.4268 404.197 58.9522 403.747 60.0032C404.347 62.7806 410.353 67.5474 421.763 74.3033C422.063 75.8047 422.251 77.3435 422.326 78.9199C417.071 77.3435 407.05 69.8744 392.262 56.5126C391.811 56.5126 390.422 55.7244 388.095 54.148L386.744 58.9898L388.546 71.7135C389.146 72.9146 389.447 74.1907 389.447 75.5419L389.221 80.2711L388.095 80.1585C389.972 85.3381 390.91 88.2657 390.91 88.9413L389.784 89.3917C389.784 88.8662 389.109 88.1156 387.758 87.1397C387.683 87.515 387.457 87.7027 387.082 87.7027L387.645 88.7161C387.645 89.2415 387.082 89.767 385.956 90.2925L385.506 89.1665H384.943C384.267 88.7912 383.742 88.5659 383.366 88.4909L383.817 89.7295C383.441 90.33 383.254 90.8179 383.254 91.1933ZM393.275 73.0647L392.149 72.9521L392.262 71.2631L393.388 71.3757L393.275 73.0647ZM418.272 64.1694C417.521 64.0943 417.146 63.719 417.146 63.0434L418.272 63.156V64.1694Z" fill="white"/>
<path d="M298.245 59.1058C297.752 54.8683 297.246 51.8384 296.727 50.0161L297.054 49.6603L296.122 49.3501L296.233 48.8403C296.426 47.9567 296.131 46.8243 295.349 45.4431C295.18 45.8336 295.051 46.2328 294.962 46.6406C294.784 47.4563 294.798 48.3494 295.003 49.3198C294.973 49.4558 294.839 49.4977 294.601 49.4456L294.481 49.4196C294.229 50.5752 295.263 53.8625 297.581 59.2815L298.156 59.5136L298.245 59.1058ZM365.067 77.739L364.492 77.5069C363.826 77.504 363.334 77.4678 363.016 77.3984L362.658 77.3203L362.197 78.2879L362.891 78.546C363.368 78.6501 364.093 78.3811 365.067 77.739ZM359.371 78.6329C359.331 78.0544 359.34 77.6292 359.399 77.3573L359.466 77.0514L358.891 76.8193L358.244 78.0667L359.371 78.6329ZM359.017 75.6717L358.442 75.4396L357.981 76.4072L358.556 76.6393L359.017 75.6717ZM358.881 74.574L357.732 74.1098L357.524 74.4916L358.673 74.9558L358.881 74.574ZM358.274 72.1985C356.952 68.7059 356.179 66.8995 355.955 66.7795L355.747 67.1613C355.626 69.6272 356.138 71.4834 357.283 72.7301L358.274 72.1985ZM349.271 76.2165C348.809 76.0444 348.629 75.7204 348.733 75.2446L348.964 74.7608L348.844 74.7348C348.526 74.6654 347.276 74.8556 345.094 75.3055C344.626 74.7761 344.241 74.4428 343.937 74.3054C343.66 74.8145 343.083 74.9736 342.208 74.7827L341.731 74.6786L341.769 75.6483L344.7 75.9671L344.514 76.247L346.423 76.6635C346.131 77.2405 345.022 77.3548 343.098 77.0063L342.682 77.7699L343.137 77.976C345.648 78.31 347.301 78.5638 348.096 78.7373L348.432 78.9174L348.371 78.0496L349.271 76.2165ZM330.639 66.4917L330.162 66.3875L329.745 67.1512L330.2 67.3573L330.639 66.4917ZM327.691 75.9958C327.78 75.5879 327.518 75.068 326.906 74.436C322.944 74.6401 320.685 74.6813 320.128 74.5599L320.009 74.5338L319.964 74.7378C319.89 75.0776 320.159 75.5636 320.771 76.1956C321.154 76.3503 321.585 76.4797 322.062 76.5838C323.653 76.9309 325.522 76.7689 327.669 76.0978L327.691 75.9958ZM317.677 76.0546C317.706 75.9187 317.405 75.3901 316.772 74.4688C314.152 74.2534 312.718 74.3323 312.47 74.7054C312.773 74.8428 312.903 75.0135 312.858 75.2174L312.836 75.3193C313.09 75.3034 313.495 75.3562 314.052 75.4777C314.848 75.6512 315.979 76.0048 317.446 76.5384L317.677 76.0546ZM303.416 67.4968C303.403 65.6427 302.791 63.4799 301.58 61.0082L301.125 60.8022L301.058 61.1081C301.113 64.6803 301.898 66.8099 303.416 67.4968ZM289.498 76.8516L288.372 76.2854L288.163 76.6672L289.29 77.2334L289.498 76.8516ZM294.94 63.9393L294.485 63.7332L294.046 64.5988L294.501 64.8049L294.94 63.9393ZM374.324 74.8448C374.002 75.5578 373.483 75.8362 372.767 75.68L372.073 75.4219L372.09 76.4935C371.753 77.2745 370.948 77.5262 369.675 77.2486C368.799 77.0577 367.748 76.7214 366.519 76.2399L366.288 76.7237L366.185 77.7693L368.803 77.8061L368.916 79.0058L368.558 78.9277C368.081 78.8236 367.711 78.9921 367.448 79.4332L367.903 79.6393C368.41 79.6074 368.902 79.6436 369.38 79.7477L370.193 80.0319L370.306 81.2315L370.076 81.7153L366.445 82.312L367.594 82.7762L367.155 83.6418C364.341 83.1704 362.634 83.5457 362.034 84.7678L361.481 84.4338C360.943 83.4619 360.41 82.8473 359.883 82.5898L359.422 83.5574L360.332 83.9695C360.069 84.4107 359.846 84.8605 359.663 85.3189C359.415 85.6921 359.052 85.8266 358.575 85.7225L358.217 85.6444L358.239 85.5424C358.328 85.1346 357.857 84.4266 356.827 83.4186L347.945 82.87L347.99 82.6661C348.034 82.4622 347.944 82.3002 347.721 82.1802C344.341 83.1521 341.299 83.3431 338.594 82.7531C337.719 82.5622 336.898 82.3121 336.133 82.0026L335.813 82.8942C335.62 83.7779 335.699 84.7563 336.048 85.8294C335.646 86.525 335.167 86.8121 334.61 86.6906L334.371 86.6386C333.21 84.3203 332.366 83.0324 331.838 82.775C321.864 80.7418 316.061 79.8323 314.431 80.0464L312.827 79.3761C312.519 80.0211 309.942 79.993 305.094 79.2917C304.647 80.1913 303.291 80.6787 301.024 80.754L300.794 81.2377L299.995 80.3158C299.315 81.5205 296.827 81.6544 292.531 80.7173C290.383 80.2488 287.754 79.4975 284.646 78.4635L284.966 77.5719C285.277 76.1445 284.735 74.4242 283.341 72.411C286.17 72.8144 287.684 72.7529 287.882 72.2265L288.215 70.6971C289.914 69.7859 290.888 69.1437 291.136 68.7706L291.085 63.8461L291.732 62.5987L292.187 62.8048C292.585 62.8915 292.853 62.8076 292.992 62.5531C291.349 56.7117 290.408 49.5636 290.168 41.1088L291.428 41.0632L291.883 41.2693L293.026 42.9072L293.601 43.1393L294.939 40.4405C293.726 39.891 292.996 38.8418 292.751 37.2928C293.346 36.8532 293.761 36.4807 293.994 36.1756C293.691 36.0382 293.177 34.5731 292.453 31.7804C293.169 31.9366 293.666 31.7602 293.943 31.2511C293.416 30.9937 293.212 30.593 293.33 30.0493L293.583 29.4635L294.157 29.6956L298.621 44.7684C299.879 52.3771 303.676 61.1449 310.012 71.0718L311.735 71.7681L313.637 71.6487L313.615 71.7507C313.57 71.9546 313.692 72.1593 313.981 72.3646C314.12 72.1101 314.308 72.0088 314.547 72.0609L314.666 72.0869C314.828 70.1996 314.699 68.498 314.279 66.9824L314.757 67.0865L318.067 71.974C322.148 72.3658 324.985 72.7353 326.576 73.0823L327.628 73.4186C327.842 69.7624 324.554 62.1024 317.763 50.4386L317.971 50.0568L319.001 50.495C318.846 49.6778 318.842 48.9294 318.99 48.2497C319.064 47.9098 319.171 47.6126 319.31 47.358C322.462 55.4512 324.976 60.1652 326.852 61.5L327.06 61.1182C324.124 54.7099 323.145 49.2626 324.124 44.7763L324.279 44.0626C323.911 43.8399 323.208 41.9063 322.169 38.2617L322.838 36.9124C323.142 37.0498 323.517 37.2385 323.965 37.4785C324.348 37.6333 328.734 48.0961 337.122 68.867L339.2 72.5245L341.259 73.4008C345.987 73.5063 348.751 73.2546 349.55 72.6457C346.79 60.0807 345.671 50.6866 346.195 44.4634L346.434 44.5154C346.673 44.5675 346.861 44.4662 347 44.2117C346.458 44.0222 346.147 43.349 346.066 42.192C346.204 41.9375 346.393 41.8362 346.632 41.8883L346.871 41.9403C346.446 40.0675 346.337 38.6552 346.544 37.7036L346.82 37.0159L347.946 37.582L347.902 37.786C347.724 38.6016 347.765 41.2808 348.024 45.8235C348.357 45.8249 348.723 45.869 349.12 45.9558C349.757 46.0946 350.53 46.3701 351.44 46.7823L351.671 46.2985L352.82 46.7627L352.545 47.4504C351.848 50.6452 354.638 58.8729 360.914 72.1334C362.127 72.6829 362.675 73.2296 362.556 73.7734L362.303 74.3591L361.155 73.8949L361.11 74.0988C360.962 74.7786 361.624 75.5639 363.097 76.4547L364.796 75.5436L365.004 75.1617C364.173 74.7669 363.817 74.2976 363.936 73.7538C364.143 72.8022 365.935 72.2316 369.31 72.0421C370.22 72.4542 370.623 72.8982 370.52 73.374C370.371 74.0538 369.86 74.2982 368.984 74.1073L368.291 73.8492L368.06 74.333L368.635 74.5651C371.314 74.5086 373.091 74.5758 373.966 74.7667L374.324 74.8448ZM316.373 48.2128L315.793 49.1544L315.218 48.9223L315.798 47.9807L316.373 48.2128ZM322.822 35.8407L322.614 36.2225L321.465 35.7583L321.695 35.2745L322.822 35.8407ZM321.646 42.9541L318.668 41.1298C318.792 40.9432 318.956 40.7653 319.159 40.5961C319.363 40.4269 319.614 40.2323 319.912 40.0125C321.216 41.2938 321.794 42.2744 321.646 42.9541ZM321.695 35.2745L319.405 34.8819L319.292 33.6823C319.714 33.2759 320.164 33.1247 320.641 33.2288C321.278 33.3676 321.629 34.0495 321.695 35.2745ZM310.339 47.2173L309.55 48.5406C309.287 48.9817 308.917 49.1502 308.44 49.0461L308.082 48.968L308.066 47.8963C308.756 47.406 309.171 47.0336 309.309 46.7791L310.339 47.2173ZM308.307 49.6579L307.89 50.4215L306.86 49.9833L307.277 49.2197L308.307 49.6579ZM306.698 45.5686L306.118 46.5102L305.543 46.2781L306.124 45.3365L306.698 45.5686ZM280.044 71.4783L279.463 72.4198L276.643 71.5912L277.06 70.8275L280.044 71.4783Z" fill="white"/>
<path d="M264.835 5.29316V4.84276H263.934V5.29316H264.835ZM226.776 80.3971V79.3837H226.326V80.3971H226.776ZM274.518 77.4695V76.5687H273.955V77.4695H274.518ZM273.955 76.1183C273.505 74.7671 273.017 74.0915 272.491 74.0915V74.6545C272.867 75.2551 273.054 75.743 273.054 76.1183H273.955ZM275.869 73.6411V72.1773H275.419V73.6411H275.869ZM273.505 73.6411C273.505 73.3409 273.655 72.8529 273.955 72.1773H273.054V73.6411H273.505ZM223.961 72.1773V70.7135H223.398V72.1773H223.961ZM252.336 70.2631V69.3623H251.886V70.2631H252.336ZM247.494 70.2631V69.3623H247.044V70.2631H247.494ZM271.591 70.2631V68.7993H271.14V70.2631H271.591ZM275.419 69.8127V68.3489H274.969V69.8127H275.419ZM273.955 71.2765C273.955 70.9012 274.143 70.7135 274.518 70.7135C274.068 68.8369 273.392 67.8986 272.491 67.8986C272.491 68.1988 272.679 68.3489 273.054 68.3489L272.491 69.3623C273.017 70.6385 273.505 71.2765 273.955 71.2765ZM271.591 68.3489V67.4482H271.14V68.3489H271.591ZM223.961 70.2631L223.398 67.4482H222.948V70.2631H223.961ZM271.14 66.4348V65.4214H270.577V66.4348H271.14ZM273.054 67.4482C273.054 65.4964 272.717 63.2444 272.041 60.6922C271.44 60.7672 271.14 61.0675 271.14 61.593C271.741 65.4964 272.379 67.4482 273.054 67.4482ZM238.374 59.6788V58.778H237.923V59.6788H238.374ZM272.041 58.215V57.3142H271.591V58.215H272.041ZM255.714 59.6788V56.7512H255.264L254.701 59.6788H255.714ZM256.164 56.3008V55.4H255.714V56.3008H256.164ZM255.264 54.837V53.9362H254.701V54.837H255.264ZM227.789 55.4V53.9362H227.226V55.4H227.789ZM251.886 52.9228V52.022H251.323V52.9228H251.886ZM266.298 52.4724V51.0086H265.848V52.4724H266.298ZM252.336 51.0086V49.5448H251.886V51.0086H252.336ZM233.532 49.5448C234.207 49.5448 234.545 49.2445 234.545 48.644H233.532V49.5448ZM265.285 49.5448L266.298 49.0944C265.998 48.5689 265.848 47.7808 265.848 46.7298H265.285V49.5448ZM237.923 46.7298V44.8156H236.91V45.266C237.21 45.8666 237.36 46.3545 237.36 46.7298H237.923ZM264.835 46.1668C265.51 46.1668 265.848 45.8666 265.848 45.266C265.848 44.5904 265.51 44.2526 264.835 44.2526V46.1668ZM228.24 53.4858V52.9228C227.939 50.2204 227.789 47.9684 227.789 46.1668H227.226V47.6306H226.326C225.65 45.9041 225.312 44.7781 225.312 44.2526H224.411C225.012 48.8317 225.8 51.9094 226.776 53.4858L227.789 52.9228C227.789 53.2981 227.939 53.4858 228.24 53.4858ZM254.701 46.7298C254.926 45.0784 255.414 44.2526 256.164 44.2526C256.164 45.2285 256.502 45.7164 257.178 45.7164V44.2526C256.502 44.2526 256.164 43.7647 256.164 42.7888C255.113 42.7888 254.475 43.9148 254.25 46.1668V46.7298H254.701ZM228.24 43.8022V42.3384H227.789V43.8022H228.24ZM225.312 43.3518V41.4376H224.862V43.3518H225.312ZM264.835 41.4376V40.4242H264.384V41.4376H264.835ZM255.264 41.4376C255.864 41.4376 256.164 41.0998 256.164 40.4242H255.264V41.4376ZM232.631 48.644C233.232 48.644 233.532 48.3062 233.532 47.6306C230.905 42.8264 229.478 40.4242 229.253 40.4242L228.69 41.4376C230.266 43.0891 231.58 45.4912 232.631 48.644ZM226.776 41.888L226.326 40.8746C226.626 40.2741 226.776 39.7862 226.776 39.4108C226.175 39.561 225.875 39.8988 225.875 40.4242V41.888H226.776ZM257.628 41.4376V38.9604H257.178L256.615 41.4376H257.628ZM261.907 35.1321V33.6683H261.457V35.1321H261.907ZM227.789 20.1563V19.7059H226.776V20.1563H227.789ZM264.384 7.65775V6.75695C264.384 6.08136 264.046 5.74356 263.371 5.74356V7.65775H264.384ZM229.703 85.6893H229.253L225.312 79.3837V78.9333L223.398 80.3971C221.521 80.3971 220.583 79.121 220.583 76.5687V75.5553L219.119 76.5687C218.444 76.5687 218.106 76.2309 218.106 75.5553C219.382 75.5553 220.02 72.8529 220.02 67.4482V64.971C220.771 64.971 221.259 64.3329 221.484 63.0568L221.033 62.0434C221.033 61.1426 221.183 60.6922 221.484 60.6922L221.033 59.6788V57.3142H221.934L222.948 64.971H223.398C223.398 61.0675 223.586 58.6654 223.961 57.7646C222.76 50.1829 221.784 45.191 221.033 42.7888H220.583C220.583 36.7085 219.907 32.3921 218.556 29.8399L219.119 28.8265C218.744 27.5504 218.556 26.4244 218.556 25.4485L217.655 26.0115L217.205 24.9981C217.205 24.6978 217.355 24.5477 217.655 24.5477C217.355 23.9472 217.205 23.4592 217.205 23.0839L217.655 21.1697C217.43 20.1938 216.304 17.9419 214.277 14.4137L214.728 13.5129C214.427 12.8373 214.277 12.3494 214.277 12.0491L215.291 11.4861C215.891 13.1376 216.192 14.4513 216.192 15.4271C217.017 14.4513 217.805 13.9633 218.556 13.9633L218.106 8.10815H219.119V10.5853C219.119 11.0357 219.607 11.5237 220.583 12.0491C220.883 10.0974 221.334 9.12155 221.934 9.12155C223.586 12.0491 224.561 13.5129 224.862 13.5129C224.862 12.8373 224.712 12.1617 224.411 11.4861L225.312 11.0357C227.564 15.5397 229.178 18.4298 230.154 19.7059L229.703 22.1831C229.703 23.6094 231.618 28.9015 235.446 38.0597C235.446 38.6602 235.784 38.9604 236.459 38.9604C236.459 39.2607 236.272 39.4108 235.896 39.4108C236.422 40.762 236.91 41.4376 237.36 41.4376C237.51 40.762 237.848 40.4242 238.374 40.4242C238.599 42.2258 240.663 46.0918 244.567 52.022V52.9228C244.266 52.9228 244.116 53.1105 244.116 53.4858L246.03 54.837C246.706 53.1105 247.044 51.6842 247.044 50.5582L247.945 51.0086C249.221 46.2044 250.046 43.8022 250.422 43.8022C252.674 40.124 254.926 34.0061 257.178 25.4485H257.628C257.628 25.8238 257.778 26.0115 258.079 26.0115C258.079 25.6362 258.229 25.4485 258.529 25.4485L258.079 24.5477C259.054 23.0464 259.542 21.7702 259.542 20.7193L259.092 14.8641L259.542 10.5853H261.457C261.607 10.5853 262.095 10.8856 262.92 11.4861V10.5853C261.945 4.27976 261.457 0.751641 261.457 0.000976563L262.47 0.000976563L262.92 4.27976H263.934L264.384 2.36557C266.561 2.36557 267.987 3.9795 268.663 7.20735C266.786 8.25828 265.848 9.68454 265.848 11.4861C268.1 11.4861 269.226 14.714 269.226 21.1697H268.663L269.226 22.1831V24.0973H268.213L267.762 17.7917H266.298L267.762 31.3037C267.762 31.6039 267.575 32.0919 267.199 32.7675L269.226 38.0597C269.226 38.5851 268.888 39.5234 268.213 40.8746C268.888 41.0248 269.226 41.3626 269.226 41.888L268.663 42.7888C269.264 43.1642 269.902 43.3518 270.577 43.3518V43.8022H269.226C269.526 45.6038 269.676 46.88 269.676 47.6306L269.226 49.5448C269.526 50.1453 269.676 50.7834 269.676 51.459L270.577 51.0086L271.591 52.4724H271.14C270.465 52.1721 269.977 52.022 269.676 52.022C269.676 52.9228 270.164 54.3491 271.14 56.3008H271.591V55.8504C271.29 55.2499 271.14 54.6118 271.14 53.9362H272.041C272.491 58.0648 273.317 60.1292 274.518 60.1292C275.419 62.6814 275.869 64.2954 275.869 64.971C275.869 65.6466 275.569 65.9844 274.969 65.9844C274.969 65.609 274.818 65.4214 274.518 65.4214V65.9844C276.395 67.1104 277.333 69.8127 277.333 74.0915L276.432 74.6545C276.432 74.2792 276.245 74.0915 275.869 74.0915L275.419 77.0191C276.395 77.0191 276.883 77.3569 276.883 78.0325C276.057 78.633 275.569 78.9333 275.419 78.9333C274.443 78.8582 273.317 78.07 272.041 76.5687C272.041 77.5446 271.741 78.0325 271.14 78.0325C270.314 78.0325 269.489 76.4186 268.663 73.1907L269.226 72.1773L262.47 37.4967C261.794 37.4967 261.457 38.1347 261.457 39.4108H261.006C260.706 38.2848 260.556 36.8586 260.556 35.1321H259.993C259.242 44.4403 257.966 49.0944 256.164 49.0944V49.5448C257.14 49.5448 257.628 50.0327 257.628 51.0086L258.529 50.5582V52.4724C258.529 53.148 258.079 53.4858 257.178 53.4858V54.3866H258.079C257.178 60.8423 256.39 64.0702 255.714 64.0702C255.414 63.6948 255.264 62.3812 255.264 60.1292H254.701C254.701 60.5045 253.912 62.9442 252.336 67.4482C252.336 68.3489 252.636 68.7993 253.237 68.7993C252.861 71.6519 252.561 73.4159 252.336 74.0915L253.237 74.6545C253.237 74.2792 253.424 74.0915 253.8 74.0915C253.8 75.0674 253.312 75.5553 252.336 75.5553C252.937 76.6063 253.237 77.5821 253.237 78.4829C251.735 78.4829 249.521 76.869 246.593 73.6411H246.03L246.593 72.7403C241.864 67.7109 238.636 63.5072 236.91 60.1292C236.459 60.1292 235.183 57.5769 233.081 52.4724C233.382 52.4724 233.532 52.3223 233.532 52.022C232.256 51.3464 231.618 50.3705 231.618 49.0944H232.068C230.191 45.266 229.065 43.3518 228.69 43.3518C228.69 44.7781 228.54 45.7164 228.24 46.1668H229.253C229.253 47.8933 229.065 49.0193 228.69 49.5448L229.253 50.5582C228.878 51.1587 228.69 51.6467 228.69 52.022C229.366 52.0971 229.703 52.585 229.703 53.4858H228.69V53.9362L229.703 55.4V55.8504L229.253 56.7512C229.703 56.8263 230.642 61.1801 232.068 69.8127L233.081 70.2631C232.781 70.8637 232.631 71.3516 232.631 71.7269L233.081 72.7403L232.631 73.6411C233.907 77.6947 234.545 80.2845 234.545 81.4105H233.532L232.631 78.0325H233.081L230.604 71.2765H230.154C230.154 70.9012 230.304 70.7135 230.604 70.7135C229.703 67.7109 228.915 62.7565 228.24 55.8504H227.226V56.3008C227.602 56.9013 227.789 57.3893 227.789 57.7646H227.226L227.789 58.778C227.789 62.7565 228.577 67.0728 230.154 71.7269C229.553 71.7269 229.253 71.8771 229.253 72.1773C229.253 73.6036 230.041 75.3677 231.618 77.4695C230.867 82.9494 230.229 85.6893 229.703 85.6893ZM228.014 89.0673C227.189 89.0673 226.776 88.7295 226.776 88.0539L229.253 87.6035V88.0539C229.253 88.7295 228.84 89.0673 228.014 89.0673ZM277.333 83.7751H276.883C276.132 83.7751 275.644 82.3113 275.419 79.3837L276.432 78.9333C276.432 79.2336 276.582 79.3837 276.883 79.3837L276.432 80.3971C277.033 81.6732 277.333 82.7992 277.333 83.7751ZM246.03 73.1907H245.13V72.7403H246.03V73.1907ZM254.701 71.2765H253.8V70.7135H254.701V71.2765ZM278.347 70.7135H277.333C277.333 69.8127 277.183 68.7243 276.883 67.4482H277.896L278.347 70.7135ZM216.642 59.6788H215.291V58.778H216.642V59.6788ZM271.14 51.0086H270.577C270.577 50.4081 270.765 50.1078 271.14 50.1078L270.577 49.0944V47.1802H271.591L272.041 50.5582L271.14 51.0086ZM221.033 44.8156H220.02V43.8022H221.033V44.8156ZM261.907 42.7888H261.457C260.856 42.7888 260.556 42.3384 260.556 41.4376H261.006C261.607 41.5127 261.907 41.9631 261.907 42.7888ZM239.274 38.51H238.824V37.4967H239.274V38.51ZM237.36 34.6817H236.459C235.183 31.679 234.545 29.9149 234.545 29.3895L235.446 28.8265C235.446 29.6522 236.084 31.6039 237.36 34.6817ZM269.676 29.3895H268.663V27.4753H269.226L269.676 29.3895ZM232.631 19.7059H231.618C231.618 16.7783 230.829 15.1644 229.253 14.8641C229.253 14.1885 229.403 13.5505 229.703 12.9499C229.403 12.3494 229.253 11.8615 229.253 11.4861H229.703C230.754 11.4861 231.73 14.2261 232.631 19.7059Z" fill="white"/>
<path d="M195.358 5.29218V4.84178H194.457V5.29218H195.358ZM157.299 80.3961V79.3827H156.849V80.3961H157.299ZM205.042 77.4685V76.5677H204.479V77.4685H205.042ZM204.479 76.1173C204.028 74.7662 203.54 74.0906 203.015 74.0906V74.6535C203.39 75.2541 203.578 75.742 203.578 76.1173H204.479ZM206.393 73.6402V72.1764H205.942V73.6402H206.393ZM204.028 73.6402C204.028 73.3399 204.178 72.852 204.479 72.1764H203.578V73.6402H204.028ZM154.484 72.1764V70.7126H153.921V72.1764H154.484ZM182.859 70.2622V69.3614H182.409V70.2622H182.859ZM178.018 70.2622V69.3614H177.567V70.2622H178.018ZM202.114 70.2622V68.7984H201.664V70.2622H202.114ZM205.942 69.8118V68.348H205.492V69.8118H205.942ZM204.479 71.2756C204.479 70.9002 204.666 70.7126 205.042 70.7126C204.591 68.8359 203.916 67.8976 203.015 67.8976C203.015 68.1978 203.202 68.348 203.578 68.348L203.015 69.3614C203.54 70.6375 204.028 71.2756 204.479 71.2756ZM202.114 68.348V67.4472H201.664V68.348H202.114ZM154.484 70.2622L153.921 67.4472H153.471V70.2622H154.484ZM201.664 66.4338V65.4204H201.101V66.4338H201.664ZM203.578 67.4472C203.578 65.4954 203.24 63.2435 202.564 60.6912C201.964 60.7663 201.664 61.0665 201.664 61.592C202.264 65.4954 202.902 67.4472 203.578 67.4472ZM168.897 59.6778V58.777H168.447V59.6778H168.897ZM202.564 58.214V57.3132H202.114V58.214H202.564ZM186.237 59.6778V56.7502H185.787L185.224 59.6778H186.237ZM186.688 56.2998V55.399H186.237V56.2998H186.688ZM185.787 54.836V53.9352H185.224V54.836H185.787ZM158.313 55.399V53.9352H157.75V55.399H158.313ZM182.409 52.9218V52.021H181.846V52.9218H182.409ZM196.822 52.4714V51.0076H196.371V52.4714H196.822ZM182.859 51.0076V49.5438H182.409V51.0076H182.859ZM164.055 49.5438C164.731 49.5438 165.069 49.2436 165.069 48.643H164.055V49.5438ZM195.808 49.5438L196.822 49.0934C196.522 48.568 196.371 47.7798 196.371 46.7288H195.808V49.5438ZM168.447 46.7288V44.8147H167.433V45.265C167.734 45.8656 167.884 46.3535 167.884 46.7288H168.447ZM195.358 46.1658C196.034 46.1658 196.371 45.8656 196.371 45.265C196.371 44.5895 196.034 44.2517 195.358 44.2517V46.1658ZM158.763 53.4848V52.9218C158.463 50.2194 158.313 47.9674 158.313 46.1658H157.75V47.6296H156.849C156.173 45.9031 155.836 44.7771 155.836 44.2517H154.935C155.535 48.8307 156.323 51.9084 157.299 53.4848L158.313 52.9218C158.313 53.2972 158.463 53.4848 158.763 53.4848ZM185.224 46.7288C185.449 45.0774 185.937 44.2517 186.688 44.2517C186.688 45.2275 187.026 45.7154 187.701 45.7154V44.2517C187.026 44.2517 186.688 43.7637 186.688 42.7879C185.637 42.7879 184.999 43.9139 184.774 46.1658V46.7288H185.224ZM158.763 43.8013V42.3375H158.313V43.8013H158.763ZM155.836 43.3509V41.4367H155.385V43.3509H155.836ZM195.358 41.4367V40.4233H194.908V41.4367H195.358ZM185.787 41.4367C186.388 41.4367 186.688 41.0989 186.688 40.4233H185.787V41.4367ZM163.155 48.643C163.755 48.643 164.055 48.3052 164.055 47.6296C161.428 42.8254 160.002 40.4233 159.777 40.4233L159.214 41.4367C160.79 43.0881 162.104 45.4902 163.155 48.643ZM157.299 41.8871L156.849 40.8737C157.149 40.2731 157.299 39.7852 157.299 39.4099C156.699 39.56 156.399 39.8978 156.399 40.4233V41.8871H157.299ZM188.152 41.4367V38.9595H187.701L187.138 41.4367H188.152ZM192.43 35.1311V33.6673H191.98V35.1311H192.43ZM158.313 20.1553V19.7049H157.299V20.1553H158.313ZM194.908 7.65677V6.75598C194.908 6.08038 194.57 5.74258 193.894 5.74258V7.65677H194.908ZM160.227 85.6883H159.777L155.836 79.3827V78.9323L153.921 80.3961C152.045 80.3961 151.106 79.12 151.106 76.5677V75.5543L149.643 76.5677C148.967 76.5677 148.629 76.2299 148.629 75.5543C149.905 75.5543 150.543 72.852 150.543 67.4472V64.97C151.294 64.97 151.782 64.3319 152.007 63.0558L151.557 62.0424C151.557 61.1416 151.707 60.6912 152.007 60.6912L151.557 59.6778V57.3132H152.458L153.471 64.97H153.921C153.921 61.0665 154.109 58.6644 154.484 57.7636C153.283 50.1819 152.307 45.19 151.557 42.7879H151.106C151.106 36.7075 150.431 32.3912 149.08 29.8389L149.643 28.8255C149.267 27.5494 149.08 26.4234 149.08 25.4475L148.179 26.0105L147.728 24.9971C147.728 24.6968 147.879 24.5467 148.179 24.5467C147.879 23.9462 147.728 23.4583 147.728 23.0829L148.179 21.1687C147.954 20.1929 146.828 17.9409 144.801 14.4128L145.251 13.512C144.951 12.8364 144.801 12.3484 144.801 12.0482L145.814 11.4852C146.415 13.1366 146.715 14.4503 146.715 15.4261C147.541 14.4503 148.329 13.9624 149.08 13.9624L148.629 8.10717H149.643V10.5844C149.643 11.0348 150.13 11.5227 151.106 12.0482C151.407 10.0964 151.857 9.12057 152.458 9.12057C154.109 12.0482 155.085 13.512 155.385 13.512C155.385 12.8364 155.235 12.1608 154.935 11.4852L155.836 11.0348C158.088 15.5387 159.701 18.4288 160.677 19.7049L160.227 22.1821C160.227 23.6084 162.141 28.9006 165.97 38.0587C165.97 38.6592 166.307 38.9595 166.983 38.9595C166.983 39.2597 166.795 39.4099 166.42 39.4099C166.945 40.7611 167.433 41.4367 167.884 41.4367C168.034 40.7611 168.372 40.4233 168.897 40.4233C169.122 42.2249 171.187 46.0908 175.09 52.021V52.9218C174.79 52.9218 174.64 53.1095 174.64 53.4848L176.554 54.836C177.229 53.1095 177.567 51.6832 177.567 50.5572L178.468 51.0076C179.744 46.2034 180.57 43.8013 180.945 43.8013C183.197 40.123 185.449 34.0051 187.701 25.4475H188.152C188.152 25.8228 188.302 26.0105 188.602 26.0105C188.602 25.6352 188.752 25.4475 189.052 25.4475L188.602 24.5467C189.578 23.0454 190.066 21.7693 190.066 20.7183L189.615 14.8632L190.066 10.5844H191.98C192.13 10.5844 192.618 10.8846 193.444 11.4852V10.5844C192.468 4.27879 191.98 0.750664 191.98 0L192.993 0L193.444 4.27879H194.457L194.908 2.36459C197.085 2.36459 198.511 3.97852 199.186 7.20638C197.31 8.25731 196.371 9.68357 196.371 11.4852C198.623 11.4852 199.749 14.713 199.749 21.1687H199.186L199.749 22.1821V24.0963H198.736L198.286 17.7907H196.822L198.286 31.3027C198.286 31.603 198.098 32.0909 197.723 32.7665L199.749 38.0587C199.749 38.5841 199.412 39.5225 198.736 40.8737C199.412 41.0238 199.749 41.3616 199.749 41.8871L199.186 42.7879C199.787 43.1632 200.425 43.3509 201.101 43.3509V43.8013H199.749C200.05 45.6028 200.2 46.879 200.2 47.6296L199.749 49.5438C200.05 50.1444 200.2 50.7824 200.2 51.458L201.101 51.0076L202.114 52.4714H201.664C200.988 52.1712 200.5 52.021 200.2 52.021C200.2 52.9218 200.688 54.3481 201.664 56.2998H202.114V55.8494C201.814 55.2489 201.664 54.6108 201.664 53.9352H202.564C203.015 58.0639 203.841 60.1282 205.042 60.1282C205.942 62.6805 206.393 64.2944 206.393 64.97C206.393 65.6456 206.093 65.9834 205.492 65.9834C205.492 65.608 205.342 65.4204 205.042 65.4204V65.9834C206.918 67.1094 207.857 69.8118 207.857 74.0906L206.956 74.6535C206.956 74.2782 206.768 74.0906 206.393 74.0906L205.942 77.0181C206.918 77.0181 207.406 77.3559 207.406 78.0315C206.58 78.6321 206.093 78.9323 205.942 78.9323C204.967 78.8573 203.841 78.0691 202.564 76.5677C202.564 77.5436 202.264 78.0315 201.664 78.0315C200.838 78.0315 200.012 76.4176 199.186 73.1898L199.749 72.1764L192.993 37.4957C192.318 37.4957 191.98 38.1337 191.98 39.4099H191.53C191.229 38.2839 191.079 36.8576 191.079 35.1311H190.516C189.766 44.4393 188.489 49.0934 186.688 49.0934V49.5438C187.664 49.5438 188.152 50.0318 188.152 51.0076L189.052 50.5572V52.4714C189.052 53.147 188.602 53.4848 187.701 53.4848V54.3856H188.602C187.701 60.8413 186.913 64.0692 186.237 64.0692C185.937 63.6939 185.787 62.3802 185.787 60.1282H185.224C185.224 60.5035 184.436 62.9432 182.859 67.4472C182.859 68.348 183.16 68.7984 183.76 68.7984C183.385 71.6509 183.085 73.415 182.859 74.0906L183.76 74.6535C183.76 74.2782 183.948 74.0906 184.323 74.0906C184.323 75.0664 183.835 75.5543 182.859 75.5543C183.46 76.6053 183.76 77.5811 183.76 78.4819C182.259 78.4819 180.044 76.868 177.117 73.6402H176.554L177.117 72.7394C172.388 67.7099 169.16 63.5062 167.433 60.1282C166.983 60.1282 165.707 57.5759 163.605 52.4714C163.905 52.4714 164.055 52.3213 164.055 52.021C162.779 51.3454 162.141 50.3696 162.141 49.0934H162.592C160.715 45.265 159.589 43.3509 159.214 43.3509C159.214 44.7771 159.063 45.7154 158.763 46.1658H159.777C159.777 47.8924 159.589 49.0184 159.214 49.5438L159.777 50.5572C159.401 51.1578 159.214 51.6457 159.214 52.021C159.889 52.0961 160.227 52.584 160.227 53.4848H159.214V53.9352L160.227 55.399V55.8494L159.777 56.7502C160.227 56.8253 161.165 61.1791 162.592 69.8118L163.605 70.2622C163.305 70.8627 163.155 71.3506 163.155 71.726L163.605 72.7394L163.155 73.6402C164.431 77.6937 165.069 80.2835 165.069 81.4095H164.055L163.155 78.0315H163.605L161.128 71.2756H160.677C160.677 70.9002 160.827 70.7126 161.128 70.7126C160.227 67.7099 159.439 62.7555 158.763 55.8494H157.75V56.2998C158.125 56.9003 158.313 57.3883 158.313 57.7636H157.75L158.313 58.777C158.313 62.7555 159.101 67.0718 160.677 71.726C160.077 71.726 159.777 71.8761 159.777 72.1764C159.777 73.6026 160.565 75.3667 162.141 77.4685C161.39 82.9484 160.752 85.6883 160.227 85.6883ZM158.538 89.0663C157.712 89.0663 157.299 88.7285 157.299 88.0529L159.777 87.6025V88.0529C159.777 88.7285 159.364 89.0663 158.538 89.0663ZM207.857 83.7741H207.406C206.656 83.7741 206.168 82.3103 205.942 79.3827L206.956 78.9323C206.956 79.2326 207.106 79.3827 207.406 79.3827L206.956 80.3961C207.556 81.6723 207.857 82.7983 207.857 83.7741ZM176.554 73.1898H175.653V72.7394H176.554V73.1898ZM185.224 71.2756H184.323V70.7126H185.224V71.2756ZM208.87 70.7126H207.857C207.857 69.8118 207.706 68.7233 207.406 67.4472H208.42L208.87 70.7126ZM147.165 59.6778H145.814V58.777H147.165V59.6778ZM201.664 51.0076H201.101C201.101 50.4071 201.288 50.1068 201.664 50.1068L201.101 49.0934V47.1792H202.114L202.564 50.5572L201.664 51.0076ZM151.557 44.8147H150.543V43.8013H151.557V44.8147ZM192.43 42.7879H191.98C191.379 42.7879 191.079 42.3375 191.079 41.4367H191.53C192.13 41.5117 192.43 41.9621 192.43 42.7879ZM169.798 38.5091H169.348V37.4957H169.798V38.5091ZM167.884 34.6807H166.983C165.707 31.678 165.069 29.914 165.069 29.3885L165.97 28.8255C165.97 29.6512 166.608 31.603 167.884 34.6807ZM200.2 29.3885H199.186V27.4743H199.749L200.2 29.3885ZM163.155 19.7049H162.141C162.141 16.7773 161.353 15.1634 159.777 14.8632C159.777 14.1876 159.927 13.5495 160.227 12.949C159.927 12.3484 159.777 11.8605 159.777 11.4852H160.227C161.278 11.4852 162.254 14.2251 163.155 19.7049Z" fill="white"/>
<path d="M121.271 7.09473C121.797 7.09473 122.322 7.65772 122.848 8.78372C122.473 9.38425 122.285 10.0974 122.285 10.9231L123.411 10.3601H123.974C124.649 10.3601 124.987 11.0732 124.987 12.4995H125.55C125.55 9.64699 126.076 8.22072 127.127 8.22072C128.553 11.899 130.505 24.5477 132.982 46.1668C132.982 47.6681 133.17 49.0944 133.545 50.4456C133.545 50.8209 133.357 51.0086 132.982 51.0086L134.671 60.1292H135.121V57.4268H136.247V60.6922C136.247 61.3678 135.872 61.7056 135.121 61.7056C135.121 62.0809 135.309 62.6063 135.684 63.2819L135.121 68.1237L135.684 69.2497L135.121 70.2631L135.684 71.3891C135.009 72.5151 134.671 73.3784 134.671 73.9789C135.497 76.5312 136.36 77.8073 137.261 77.8073V79.3837C137.261 80.0593 136.923 80.3971 136.247 80.3971H135.684C134.258 80.3971 133.019 78.2577 131.968 73.9789C130.167 73.7537 129.266 72.8904 129.266 71.3891H128.253V73.5285H127.127L125.55 72.4025L126.113 70.2631C124.687 66.3597 123.974 63.8825 123.974 62.8315H124.424L122.848 52.1346C123.223 51.3839 123.411 50.8209 123.411 50.4456C123.036 49.8451 122.848 48.9818 122.848 47.8558H123.974V45.7164H123.411V46.7298H122.285C122.285 46.0542 121.947 45.7164 121.271 45.7164C121.647 44.5904 121.834 42.451 121.834 39.2982L123.974 40.3116V39.7486L123.411 36.5958H122.848V38.7352H121.834C121.084 32.88 120.371 29.6522 119.695 29.0517V28.6013C119.695 28.2259 119.845 28.0383 120.145 28.0383C119.545 24.5852 118.494 21.8828 116.993 19.9311C116.993 18.8802 116.805 17.6416 116.43 16.2153H116.993L116.43 15.2019V11.3735L121.271 7.09473ZM127.69 31.754V32.88H128.703C128.703 32.1294 128.365 31.754 127.69 31.754ZM122.848 32.88L122.285 35.4698C123.036 35.4698 123.411 34.9444 123.411 33.8934V32.88H122.848ZM128.253 33.3304V35.4698H128.703V33.3304H128.253ZM128.703 36.5958V37.6092H129.266V36.5958H128.703ZM122.848 41.888V43.014H123.411V41.888H122.848ZM129.829 41.888V44.0274H130.392V41.888H129.829ZM123.974 48.3062V49.9952H124.424V48.3062H123.974ZM124.424 55.8504V56.4134C124.8 57.0139 124.987 57.727 124.987 58.5528V60.6922C126.038 60.6922 126.564 61.03 126.564 61.7056H127.127V59.5662C126.076 59.5662 125.55 59.2284 125.55 58.5528V57.9898H126.564V56.4134C125.363 56.038 124.649 55.8504 124.424 55.8504ZM126.113 64.9709V67.1103H126.564V64.9709H126.113ZM127.127 67.1103V67.5607C127.502 68.3114 127.69 68.8744 127.69 69.2497C127.314 69.2497 127.127 69.3999 127.127 69.7001L128.253 70.2631V69.7001L127.69 67.1103H127.127ZM135.684 67.1103H136.81C136.81 68.3865 137.523 70.8637 138.95 74.5419H138.387C137.186 73.6411 136.285 72.2149 135.684 70.2631L136.247 69.2497C135.872 68.5741 135.684 67.861 135.684 67.1103ZM128.253 75.1049C128.928 75.18 129.266 75.5178 129.266 76.1183H128.253V75.1049ZM128.703 81.5231H129.829C129.829 82.9493 130.167 84.1879 130.842 85.2389L129.829 85.8019C129.078 84.5257 128.703 83.0995 128.703 81.5231ZM135.684 82.5365C136.135 82.5365 137.223 84.1504 138.95 87.3783V87.9413H138.387C138.011 87.9413 137.11 87.0405 135.684 85.2389V82.5365ZM138.387 84.2255H139.4V85.2389C138.724 85.2389 138.387 84.9011 138.387 84.2255ZM132.982 84.6759H134.108V85.2389H132.982V84.6759Z" fill="white"/>
<path d="M71.5066 87.3777L71.6192 84.4501C71.6192 82.7987 70.6058 81.5601 68.579 80.7343C68.504 81.1097 68.2788 81.2973 67.9034 81.2973C68.2788 82.7987 69.1045 84.6003 70.3806 86.7021V87.2651L71.5066 87.3777ZM68.579 79.1579V78.5949C68.579 77.2438 68.3914 75.1044 68.016 72.1768H67.453L67.3404 73.1902C67.7908 76.4931 68.016 78.4448 68.016 79.0453V79.1579H68.579ZM63.9625 60.9168V59.9034C63.2118 59.9034 62.8365 60.2037 62.8365 60.8042L63.9625 60.9168ZM85.2438 52.4718V51.9088L80.0642 49.4316C80.0642 50.0322 81.6031 51.0456 84.6808 52.4718H85.2438ZM79.5012 49.4316L79.6138 48.8686H78.4878L78.3752 49.4316H79.5012ZM66.5522 41.7749V40.7615H65.9893V41.7749H66.5522ZM66.1018 39.6355L66.2144 38.0591H65.7641L65.6515 39.6355H66.1018ZM64.5255 38.9599L64.6381 37.3835H64.0751L63.9625 38.9599H64.5255ZM59.2333 27.9251L59.3459 26.9117H58.7829L58.6703 27.9251H59.2333ZM58.7829 26.3487V25.2227H58.2199V26.3487H58.7829ZM58.3325 23.6463L58.4451 22.6329H57.9947L57.8821 23.6463H58.3325ZM73.8712 41.3245C83.4797 31.716 88.3215 26.3862 88.3966 25.3353H87.8336C84.5307 22.4828 77.7371 19.4801 67.453 16.3273H66.89C66.89 17.3032 67.7908 18.9547 69.5924 21.2817C69.5924 22.1075 68.9919 23.8715 67.7908 26.5739C69.5174 35.6569 70.6058 40.1985 71.0562 40.1985C71.5066 40.1985 72.1072 40.5738 72.8578 41.3245H73.8712ZM68.1286 89.2919H67.1152L66.6648 85.5761L67.453 82.3107H66.89L66.7774 83.4367L65.6515 83.3241L65.4263 80.6217H65.8767L66.89 81.2973C66.89 80.1713 66.5522 79.5708 65.8767 79.4957C65.8767 79.8711 65.7265 80.0587 65.4263 80.0587L64.8633 79.0453C64.9383 78.2947 65.1635 77.9193 65.5389 77.9193C64.8633 76.1928 64.5255 70.713 64.5255 61.4798H63.3995L63.7373 64.1822L62.6113 64.0696L62.7239 61.9302H61.7105L59.4585 63.957L59.0081 62.831L59.5711 61.8176C59.2708 61.142 59.1207 60.4289 59.1207 59.6782L62.0483 57.0884C61.748 56.1125 61.4853 53.9732 61.2601 50.6702H61.8231L61.2601 49.5442C61.3351 48.7936 61.5603 48.0804 61.9357 47.4048C60.9598 47.3298 60.2091 44.4397 59.6837 38.7347C60.1341 38.0591 60.3593 37.5336 60.3593 37.1583C58.7829 34.7562 57.0563 26.4238 55.1797 12.1612L55.2923 11.7108C55.9679 11.7858 56.3057 11.936 56.3057 12.1612C56.8311 12.011 57.5818 11.936 58.5577 11.936V10.81C56.8311 10.7349 55.9679 10.2094 55.9679 9.23357C55.9679 8.40784 57.6569 7.01911 61.0349 5.06738C61.0349 6.34351 64.1501 7.91991 70.3806 9.79657C84.1178 17.8287 91.4743 21.8823 92.4502 21.9573C95.9032 17.5284 97.8174 15.3139 98.1927 15.3139L99.3187 15.9895V14.9762C99.9943 15.0512 100.332 15.389 100.332 15.9895C99.8817 15.9895 99.0185 16.6651 97.7423 18.0163C97.7423 19.0673 98.0801 19.5927 98.7557 19.5927C99.2061 19.8179 99.4313 20.0807 99.4313 20.3809C99.4313 20.6061 99.2812 20.8689 98.9809 21.1691V21.7321L100.557 21.8447L97.6297 24.3219C99.2812 24.7723 101.233 25.9734 103.485 27.9251V29.0511C102.584 29.0511 101.646 29.5015 100.67 30.4023L93.2384 27.8125C84.8309 37.1207 80.1393 42.9009 79.1634 45.1529H79.7264C86.8577 48.4558 92.4126 52.4718 96.3911 57.201C99.5439 58.7023 101.421 60.016 102.021 61.142H101.008L111.029 71.0508C110.954 71.6513 110.579 71.9516 109.903 71.9516C105.024 68.8738 99.4313 64.4074 93.1258 58.5522L91.099 57.4262C91.0239 58.0267 90.6486 58.327 89.973 58.327C89.973 57.1259 89.8604 56.5254 89.6352 56.5254C89.41 56.5254 89.0722 57.0509 88.6218 58.1018C89.2223 60.8793 95.2276 65.646 106.638 72.402C106.938 73.9033 107.126 75.4422 107.201 77.0185C101.946 75.4422 91.9247 67.973 77.1366 54.6112C76.6862 54.6112 75.2975 53.823 72.9704 52.2466L71.6192 57.0884L73.4208 69.8122C74.0214 71.0132 74.3216 72.2894 74.3216 73.6406L74.0964 78.3697L72.9704 78.2571C74.8471 83.4367 75.7854 86.3643 75.7854 87.0399L74.6594 87.4903C74.6594 86.9649 73.9838 86.2142 72.6326 85.2383C72.5576 85.6137 72.3324 85.8013 71.957 85.8013L72.52 86.8147C72.52 87.3402 71.957 87.8656 70.831 88.3911L70.3806 87.2651H69.8176C69.142 86.8898 68.6166 86.6646 68.2412 86.5895L68.6916 87.8281C68.3163 88.4286 68.1286 88.9166 68.1286 89.2919ZM78.15 71.1634L77.024 71.0508L77.1366 69.3618L78.2626 69.4744L78.15 71.1634ZM103.147 62.268C102.396 62.1929 102.021 61.8176 102.021 61.142L103.147 61.2546V62.268Z" fill="white"/>
<path d="M28.9381 16.2151L42.2249 12.3867C42.2249 10.6601 41.8871 9.79688 41.2115 9.79688C39.0345 11.2231 37.4206 11.9363 36.3697 11.9363V11.3733C33.367 12.4242 30.8898 13.8505 28.9381 15.6521V16.2151ZM31.0775 84.6756C31.7531 84.6756 32.0909 84.3003 32.0909 83.5496L31.5279 80.3968C30.1016 80.3968 29.3885 80.7346 29.3885 81.4102V81.9732C30.5145 83.1743 31.0775 84.0751 31.0775 84.6756ZM30.5145 79.8338C30.5145 79.1582 30.7022 78.8204 31.0775 78.8204L29.3885 71.2763H27.8121V71.8393C27.8121 73.8661 28.1874 76.5309 28.9381 79.8338H30.5145ZM28.3751 70.2629C28.3751 69.1369 27.9998 68.5739 27.2491 68.5739V69.1369C27.3992 69.8876 27.7746 70.2629 28.3751 70.2629ZM30.5145 66.4345V64.8581H29.3885C29.7638 65.5337 29.9515 66.0592 29.9515 66.4345H30.5145ZM24.6593 53.1477V52.0217H24.0963V53.1477H24.6593ZM26.2357 54.1611V51.4587H25.6727V54.1611H26.2357ZM24.6593 42.9012V41.8878H24.0963V42.9012H24.6593ZM25.6727 39.7484V35.4696C24.9971 35.8449 24.4717 36.0326 24.0963 36.0326V37.046C24.7719 37.046 25.1097 37.9468 25.1097 39.7484H25.6727ZM25.6727 34.9066C25.6727 34.1559 25.4851 33.4428 25.1097 32.7672C25.4851 32.0916 25.6727 31.5661 25.6727 31.1908L24.6593 30.6278V32.2042L25.1097 34.9066H25.6727ZM25.1097 29.6144V27.9254H24.6593V29.6144H25.1097ZM32.0909 86.815H30.5145C28.9381 84.3378 27.8496 83.0992 27.2491 83.0992C27.2491 82.7239 27.4368 82.1609 27.8121 81.4102C26.3859 70.2253 24.6218 60.6168 22.5199 52.5847C22.5199 52.2094 22.6701 52.0217 22.9703 52.0217L21.3939 39.7484C21.7693 39.7484 21.9569 39.5607 21.9569 39.1854C21.4315 39.1854 20.906 38.6599 20.3805 37.609V36.483H21.3939V33.8932H20.3805V23.6466H19.8175C14.8632 24.6976 11.2975 25.786 9.12057 26.912L6.98118 25.786C6.98118 26.1614 5.74258 27.2498 3.26539 29.0514C2.51473 29.0514 2.13939 28.6761 2.13939 27.9254V26.349L2.70239 25.3356C0.900797 24.8102 0 24.2472 0 23.6466C2.17693 21.0193 9.4959 16.4027 21.9569 9.79688C22.3323 6.94436 22.8577 5.5181 23.5333 5.5181H24.6593C25.1097 5.5181 25.6352 6.38136 26.2357 8.10789L35.3563 5.5181C35.6566 5.5181 35.8067 5.66823 35.8067 5.96849C40.0104 5.66823 42.7128 4.9551 43.9139 3.8291C46.2409 4.57977 47.8173 4.9551 48.643 4.9551V5.96849C48.3428 5.96849 47.2919 5.81836 45.4903 5.5181L42.2249 5.96849V6.53149C43.6511 8.18295 44.3643 9.79688 44.3643 11.3733L49.206 10.8103L49.769 11.9363V12.3867C49.3937 12.3867 49.206 12.2365 49.206 11.9363C35.3188 16.6655 28.3751 19.7056 28.3751 21.0568C27.9998 22.8584 27.8121 23.9094 27.8121 24.2096C29.2384 45.7537 30.8523 60.3916 32.6539 68.1235H32.0909C32.0909 68.7991 33.1794 69.6623 35.3563 70.7133L35.8067 74.5417C35.2812 74.8419 34.418 74.9921 33.2169 74.9921C33.2169 76.1931 33.367 77.0939 33.6673 77.6945C33.367 78.37 33.2169 78.8955 33.2169 79.2709C33.9676 82.874 35.2062 84.6756 36.9327 84.6756V85.689H36.3697L34.2303 84.1126H33.6673C33.6673 85.1636 33.3295 85.689 32.6539 85.689C32.6539 85.3888 32.4662 85.2386 32.0909 85.2386V86.815ZM26.7987 80.9598H25.6727C24.2465 77.0564 23.5333 74.5417 23.5333 73.4157H24.6593C24.6593 74.7669 25.3725 77.2816 26.7987 80.9598ZM24.0963 71.8393H22.9703V70.7133H24.0963V71.8393ZM23.5333 69.1369H22.5199V66.9975H23.5333V69.1369ZM22.9703 65.4211H22.5199V64.2951H22.9703V65.4211ZM21.9569 55.2871H20.8309V54.1611H21.9569V55.2871ZM21.9569 51.0083H20.8309C20.8309 49.8823 20.6808 48.6062 20.3805 47.18H21.3939L21.9569 51.0083ZM21.3939 42.4508H20.3805V41.3248H21.3939V42.4508Z" fill="white"/>
<path d="M77.4506 133.091C77.4186 133.091 77.1609 132.853 76.6777 132.376L76.6782 125.416C76.6781 120.712 76.7568 118.183 76.9144 117.83C77.2292 117.06 77.7858 116.56 78.5842 116.331C78.9038 116.264 80.0235 116.225 81.9435 116.212C85.1754 116.19 86.8397 116.226 86.9364 116.322C86.9686 116.353 87.0341 116.577 87.1329 116.992C87.2636 117.375 87.313 117.583 87.2812 117.615L87.0899 117.713C86.9621 117.745 86.7704 117.795 86.5148 117.861C86.2593 117.926 86.0357 117.992 85.8442 118.057C85.0777 118.286 84.4065 118.403 83.8305 118.407L83.2545 118.411C82.6783 118.383 82.0062 118.371 81.2382 118.377C80.3743 118.382 79.8148 118.466 79.5599 118.628C79.2097 118.886 79.0045 119.304 78.9445 119.88C78.8842 120.425 78.8646 122.249 78.8858 125.353L78.8969 126.985C78.912 129.193 78.8888 130.489 78.8275 130.873C78.7661 131.258 78.5135 131.755 78.0696 132.367C77.7209 132.849 77.5146 133.09 77.4506 133.091ZM109.179 118.282C108.921 118.028 108.377 117.903 107.545 117.909C106.681 117.915 105.801 118.017 104.907 118.215C103.916 118.446 102.781 118.582 101.501 118.622C99.9975 118.665 98.8781 118.752 98.143 118.885C97.4397 118.986 96.8969 119.166 96.5146 119.424C96.1644 119.683 95.8792 120.101 95.6592 120.678C95.5334 120.999 95.5201 121.399 95.6194 121.878C95.62 121.974 95.6372 122.15 95.671 122.406C95.7047 122.662 95.7388 122.966 95.7732 123.317C95.8076 123.669 95.8417 123.973 95.8754 124.229C95.9788 125.316 96.1593 125.971 96.4168 126.193C96.6421 126.384 96.8988 126.478 97.1868 126.476C97.3788 126.475 97.6184 126.425 97.9058 126.327C98.1611 126.229 98.7201 126.081 99.5828 125.884C100.382 125.718 101.069 125.633 101.645 125.629C102.701 125.622 103.87 125.79 105.153 126.134C106.499 126.444 107.444 126.598 107.988 126.594C108.98 126.587 109.889 126.181 110.716 125.376C111.224 124.892 111.7 124.281 112.143 123.542C112.618 122.771 112.87 122.177 112.899 121.761L112.897 121.473C112.892 120.705 112.615 120.066 112.068 119.558C111.52 119.05 110.862 118.734 110.093 118.612C109.645 118.551 109.34 118.441 109.179 118.282ZM102.058 115.786C104.424 115.514 106.039 115.375 106.903 115.369C108.279 115.36 109.624 115.527 110.939 115.87C112.125 116.182 112.975 116.56 113.491 117.004C114.456 117.862 114.944 119.043 114.955 120.547C114.963 121.698 114.698 122.82 114.162 123.912C113.846 124.586 113.323 125.31 112.592 126.083C111.861 126.824 111.129 127.373 110.396 127.73C108.801 128.541 107.108 128.984 105.317 129.06C104.613 129.065 103.94 128.91 103.297 128.594C102.623 128.247 102.062 128.075 101.614 128.078C101.262 128.08 100.846 128.147 100.367 128.278C99.856 128.41 99.3605 128.477 98.8805 128.48C98.4325 128.483 97.9679 128.391 97.4866 128.202C97.1017 128.077 96.8773 128.014 96.8133 128.014C96.3653 128.018 96.0173 128.612 95.7694 129.798C95.5826 130.567 95.4951 131.8 95.5066 133.496C95.5106 134.072 95.5883 136.087 95.7399 139.542C95.8161 141.334 95.8552 142.373 95.8572 142.661C95.8661 143.973 95.7284 144.886 95.4439 145.4C95.2232 145.882 94.8408 146.124 94.2968 146.128C94.0088 146.13 93.7362 146.036 93.4789 145.846C93.2856 145.655 93.1875 145.352 93.1846 144.936C93.1818 144.52 93.3149 142.919 93.5839 140.133C94.0039 136.034 94.2074 133.024 94.1943 131.104C94.1917 130.72 94.1741 130.497 94.1417 130.433C94.0757 130.145 94.008 129.602 93.9386 128.802C93.8689 127.971 93.6846 126.756 93.3857 125.158C92.7881 121.994 92.4841 119.66 92.4739 118.156C92.4689 117.42 92.5452 116.891 92.7031 116.57C92.9876 116.056 93.5138 115.797 94.2818 115.791C94.5058 115.79 95.0022 115.851 95.7711 115.973C96.5399 116.096 97.2283 116.155 97.8363 116.151C98.7963 116.145 100.204 116.023 102.058 115.786ZM120.838 116.186C121.284 115.895 121.748 115.876 122.23 116.129C122.455 116.255 122.601 116.542 122.668 116.99C122.735 117.437 122.773 118.381 122.783 119.821C122.798 121.901 122.888 123.404 123.054 124.331C123.252 125.226 123.592 125.768 124.073 125.956C124.33 126.019 124.522 126.049 124.65 126.048C124.97 126.046 125.561 125.898 126.423 125.604C126.966 125.409 127.316 125.15 127.474 124.829C127.915 123.866 128.131 122.713 128.122 121.369C128.118 120.793 128.066 120.169 127.965 119.498C127.898 118.986 127.864 118.666 127.863 118.538C127.859 118.058 128.049 117.737 128.432 117.574C128.687 117.477 128.895 117.427 129.055 117.426C129.247 117.425 129.407 117.472 129.536 117.567C129.697 117.63 129.809 117.757 129.875 117.949C129.972 118.108 130.053 118.283 130.118 118.475C130.183 118.635 130.233 118.874 130.267 119.194C130.301 119.514 130.319 119.786 130.321 120.01C130.354 120.201 130.388 120.489 130.423 120.873C130.457 121.257 130.475 121.545 130.477 121.737C130.583 123.24 130.64 124.552 130.647 125.672C130.671 129.191 130.207 131.435 129.253 132.401C128.173 133.497 126.593 134.051 124.513 134.066C123.777 134.071 123.104 133.947 122.494 133.695C121.595 133.317 121.144 132.841 121.14 132.265C121.139 132.105 121.218 131.976 121.378 131.879C121.569 131.782 121.953 131.731 122.529 131.727C123.201 131.723 123.921 131.782 124.69 131.904C125.074 131.998 125.411 132.043 125.699 132.041C126.147 132.038 126.562 131.924 126.944 131.697C127.454 131.405 127.753 130.635 127.841 129.387C127.9 128.682 127.992 128.154 128.118 127.801C128.243 127.416 128.306 127.16 128.305 127.032C128.303 126.808 128.173 126.568 127.916 126.314C127.69 126.092 127.513 125.981 127.385 125.982C127.001 125.984 126.364 126.373 125.473 127.147C124.583 127.921 123.865 128.31 123.321 128.314C122.841 128.317 122.279 127.985 121.634 127.317C120.668 126.332 120.179 125.103 120.169 123.631C120.166 123.215 120.18 122.911 120.211 122.719C120.365 121.886 120.469 120.637 120.521 118.972C120.542 117.244 120.647 116.316 120.838 116.186ZM149.048 119.354C149.842 118.452 150.687 117.999 151.583 117.992C152.639 117.985 153.491 118.603 154.14 119.847C154.821 121.186 155.576 123.933 156.404 128.088C156.669 129.43 156.803 130.245 156.805 130.533C156.807 130.853 156.697 131.158 156.475 131.447C156.126 131.93 155.52 132.174 154.656 132.18L154.608 132.18C154.48 132.181 154.383 132.07 154.318 131.846C154.252 131.591 154.118 130.743 153.916 129.305C153.48 126.332 153.148 124.574 152.92 124.032C152.823 123.808 152.467 123.299 151.854 122.503L150.982 121.357L150.028 122.227C149.36 122.84 148.884 123.371 148.599 123.821C148.346 124.239 148.078 124.913 147.797 125.843C147.578 126.58 147.472 127.557 147.481 128.773C147.489 129.957 147.414 130.709 147.256 131.03C146.876 131.673 146.111 132.062 144.96 132.198L144.51 129.513C143.94 125.837 143.51 123.776 143.219 123.33C142.929 122.948 142.606 122.582 142.252 122.232C141.865 121.851 141.608 121.661 141.48 121.662C141.32 121.663 140.874 121.97 140.142 122.583C139.633 123.034 139.268 123.469 139.047 123.886C138.826 124.304 138.591 125.041 138.342 126.099C138.28 126.355 138.187 126.804 138.063 127.445C137.939 128.054 137.846 128.454 137.784 128.647C137.659 129.096 137.392 129.834 136.983 130.86C136.605 131.855 136.353 132.433 136.226 132.594L135.983 132.115L135.886 131.876C135.721 131.173 135.634 130.262 135.627 129.142C135.618 127.798 135.707 126.789 135.894 126.116C136.549 123.647 137.593 121.768 139.024 120.478C139.978 119.64 140.935 119.121 141.893 118.923C142.021 118.89 142.181 118.873 142.373 118.871C142.853 118.868 143.286 119.041 143.672 119.391C144.059 119.708 144.591 120.312 145.269 121.204C145.56 121.618 145.867 122.032 146.189 122.445C146.512 122.859 146.738 123.146 146.867 123.305L147.245 122.438C147.907 120.93 148.508 119.902 149.048 119.354ZM162.37 116.767C162.69 116.701 162.865 116.667 162.897 116.667C163.089 116.666 163.315 116.92 163.575 117.431C163.932 118.164 164.161 118.899 164.262 119.634C164.395 120.369 164.517 121.824 164.628 124C164.741 126.591 165.057 128.365 165.576 129.321C165.738 129.608 165.851 129.783 165.915 129.847C166.012 129.91 166.204 129.957 166.492 129.987L166.588 129.986C167.74 129.979 169.018 129.602 170.421 128.856C172.047 128.045 173.304 127.012 174.192 125.758C175.111 124.472 175.566 123.109 175.556 121.669C175.553 121.221 175.502 120.757 175.402 120.278C175.27 119.639 175.203 119.255 175.203 119.127C175.202 118.999 175.359 118.63 175.675 118.02C176.023 117.41 176.229 117.104 176.293 117.104C176.357 117.103 176.63 117.31 177.113 117.722C177.628 118.135 177.934 118.421 178.031 118.58C178.193 118.835 178.361 120.098 178.537 122.369C178.712 124.608 178.806 126.687 178.819 128.607L178.831 130.383L178.263 131.491C177.916 132.229 177.727 132.598 177.695 132.599C177.631 132.599 177.389 132.441 176.971 132.124L176.296 131.648L175.756 129.876C175.69 129.62 175.608 129.333 175.51 129.013C175.412 128.694 175.33 128.471 175.265 128.343L175.216 128.103C175.184 128.104 174.451 128.509 173.016 129.318C168.904 131.619 166.303 132.772 165.215 132.78C164.576 132.784 164.077 132.484 163.721 131.878C163.333 131.273 163.052 129.915 162.877 127.804C162.739 126.333 162.553 124.766 162.317 123.103C161.979 120.45 161.808 118.755 161.803 118.019C161.801 117.795 161.832 117.555 161.894 117.298C162.052 116.977 162.21 116.8 162.37 116.767ZM193.43 117.131C193.557 117.002 193.748 116.825 194.002 116.599C194.256 116.341 194.447 116.164 194.575 116.067C194.994 116.544 195.252 116.878 195.349 117.07C195.641 117.612 196.054 121.913 196.589 129.974C196.625 130.421 196.644 130.933 196.648 131.509C196.651 131.989 196.59 132.358 196.463 132.615C196.369 132.839 196.1 133.225 195.655 133.772C195.179 134.351 194.925 134.577 194.892 134.449C194.86 134.386 194.631 133.699 194.206 132.39C193.715 130.825 193.276 129.724 192.887 129.087C192.531 128.417 192.112 128.036 191.631 127.943L191.295 127.946C191.039 127.947 190.432 127.984 189.472 128.054L187.746 128.258C187.589 128.803 187.451 129.636 187.331 130.757C187.274 131.813 187.167 132.534 187.009 132.919C186.852 133.304 186.518 133.61 186.008 133.838C185.593 134.033 185.29 134.131 185.098 134.132C184.906 134.133 184.745 134.071 184.616 133.943C184.423 133.753 184.173 129.882 183.865 122.332L183.694 118.445L184.026 117.819C184.406 117.176 184.611 116.823 184.643 116.759L185.024 116.324L185.416 117.522C185.645 118.224 185.812 119.215 185.917 120.494C186.059 122.605 186.373 124.107 186.859 125C187.345 125.861 188.116 126.287 189.172 126.28C189.46 126.278 189.684 126.261 189.844 126.228C191.25 126.026 192.222 125.347 192.758 124.192C192.979 123.71 193.175 122.077 193.348 119.292L193.43 117.131ZM202.37 132.238C202.338 132.238 202.08 132 201.597 131.523L201.597 124.563C201.597 119.859 201.676 117.331 201.833 116.978C202.148 116.207 202.705 115.708 203.503 115.478C203.823 115.412 204.943 115.372 206.862 115.359C210.094 115.337 211.759 115.374 211.855 115.469C211.888 115.501 211.953 115.724 212.052 116.14C212.183 116.523 212.232 116.731 212.2 116.763L212.009 116.86C211.881 116.893 211.689 116.942 211.434 117.008C211.178 117.074 210.955 117.139 210.763 117.205C209.997 117.434 209.325 117.55 208.749 117.554L208.173 117.558C207.597 117.53 206.925 117.519 206.157 117.524C205.293 117.53 204.734 117.614 204.479 117.776C204.129 118.034 203.923 118.451 203.863 119.028C203.803 119.572 203.784 121.396 203.805 124.5L203.816 126.132C203.831 128.34 203.808 129.636 203.746 130.021C203.685 130.405 203.432 130.903 202.989 131.514C202.64 131.996 202.434 132.238 202.37 132.238ZM236.381 121.35C236.028 121.16 235.659 121.067 235.275 121.069C234.379 121.076 233.662 121.496 233.124 122.332C232.585 123.136 232.321 124.274 232.331 125.746C232.341 127.282 232.637 128.4 233.218 129.1C233.702 129.672 234.312 129.956 235.048 129.951C236.328 129.942 237.235 129.312 237.771 128.061C238.085 127.258 238.239 126.361 238.232 125.369C238.226 124.377 238.076 123.562 237.784 122.924C237.459 122.191 236.991 121.666 236.381 121.35ZM230.245 108.479C230.245 108.447 230.276 108.415 230.34 108.383C230.404 108.35 230.58 108.333 230.868 108.331C231.732 108.325 232.453 108.416 233.03 108.604C234.056 108.885 235.084 109.486 236.114 110.407C239.302 113.362 240.911 116.887 240.939 120.983C240.949 122.519 240.8 124.104 240.491 125.738C240.183 127.436 239.631 128.688 238.837 129.493C237.946 130.331 236.894 130.947 235.681 131.339C235.106 131.535 234.579 131.634 234.099 131.638C233.299 131.643 232.481 131.329 231.645 130.694C231.066 130.25 230.565 129.614 230.143 128.785C229.754 127.955 229.54 127.109 229.502 126.245L229.5 125.861C229.489 124.357 229.912 122.962 230.767 121.676C231.654 120.358 232.752 119.535 234.062 119.206C234.35 119.108 235.053 119.055 236.173 119.047L237.805 119.084C237.93 118.507 237.99 117.931 237.986 117.355C237.98 116.587 237.88 115.932 237.684 115.389C237.325 114.399 236.743 113.507 235.938 112.713C235.133 111.918 233.782 110.903 231.885 109.668C230.793 109.004 230.246 108.607 230.245 108.479ZM249.87 116.314C250.886 115.219 252.019 114.667 253.267 114.658C253.842 114.655 254.371 114.763 254.853 114.984C255.816 115.393 256.524 116.076 256.979 117.033C257.725 118.564 258.364 120.752 258.896 123.596C259.028 124.299 259.246 125.658 259.547 127.672C259.849 129.654 260.001 130.757 260.002 130.981C260.003 131.141 259.829 131.43 259.48 131.848C259.099 132.331 258.797 132.573 258.573 132.575C258.477 132.575 258.332 132.48 258.139 132.29C257.752 131.844 257.477 131.398 257.314 130.951C257.151 130.504 256.937 129.61 256.671 128.268C255.677 123.186 255.115 120.518 254.985 120.263C254.757 119.752 254.402 119.291 253.919 118.878C253.468 118.465 253.051 118.26 252.667 118.263C252.187 118.266 251.614 118.654 250.947 119.426C250.566 119.909 250.051 121.705 249.4 124.813C249.121 126.223 248.857 127.409 248.608 128.371C248.452 128.916 248.185 129.622 247.806 130.488C247.428 131.323 247.175 131.74 247.047 131.741C246.855 131.743 246.679 131.68 246.518 131.553C246.325 131.426 246.212 131.299 246.179 131.171C246.146 131.043 246.096 130.66 246.027 130.02C245.993 129.764 245.975 129.381 245.971 128.869C245.955 126.501 246.402 124.018 247.313 121.419C248.223 118.885 249.076 117.183 249.87 116.314ZM281.211 119.556C280.376 119.114 279.446 118.896 278.422 118.903C277.526 118.941 276.329 119.381 274.831 120.223C273.365 121.065 272.378 121.872 271.872 122.644C271.301 123.48 270.972 124.426 270.883 125.483C270.822 125.963 270.889 126.315 271.082 126.537C271.34 126.791 271.902 127.108 272.769 127.486L274.165 128.052L275.937 127.56C278.077 126.969 279.546 126.479 280.343 126.09C281.141 125.701 281.665 125.233 281.918 124.687C282.075 124.302 282.152 123.854 282.149 123.342C282.145 122.83 282.06 122.062 281.893 121.039L281.693 119.841L281.211 119.556ZM282.675 116.138C282.707 116.106 282.851 116.089 283.107 116.087C283.491 116.084 283.843 116.114 284.164 116.176C284.484 116.269 284.679 116.636 284.747 117.276C284.848 117.915 284.926 120.027 284.982 123.61C284.982 123.61 284.983 123.626 284.983 123.658C285.026 125.29 285.053 126.97 285.065 128.698C285.073 129.818 285.03 130.506 284.935 130.763C284.873 130.955 284.588 131.469 284.082 132.305C283.575 133.108 283.306 133.51 283.274 133.51C283.114 133.447 282.969 133.4 282.841 133.369C282.584 133.275 282.324 132.653 282.06 131.502C281.995 131.279 281.913 131.007 281.815 130.688C281.748 130.336 281.699 130.081 281.665 129.921L281.568 129.682C281.44 129.683 280.308 130.33 278.173 131.625C274.922 133.599 272.324 135.073 270.379 136.046C267.891 137.247 266.327 137.85 265.687 137.854L265.639 137.855C265.447 137.76 265.334 137.649 265.301 137.521L265.301 137.473L265.252 137.425C265.251 137.265 266.413 136.345 268.738 134.665C270.329 133.47 271.794 132.404 273.132 131.467C273.737 131.047 274.039 130.805 274.039 130.741C274.038 130.677 273.718 130.567 273.077 130.412C271.473 129.943 270.221 129.247 269.318 128.325C268.416 127.371 267.961 126.318 267.953 125.167C267.95 124.783 267.995 124.398 268.089 124.014C268.401 122.891 269.161 121.718 270.369 120.494C271.831 118.98 273.279 117.914 274.715 117.296C275.513 116.971 276.215 116.758 276.823 116.658C277.43 116.526 278.469 116.423 279.941 116.349L282.675 116.138ZM308.351 118.651C308.094 118.524 307.757 118.463 307.341 118.466C306.573 118.471 305.983 118.651 305.569 119.006C305.283 119.232 305.109 119.521 305.047 119.873C304.985 120.194 304.942 120.914 304.918 122.034L304.923 122.754C304.942 125.57 305.354 127.391 306.16 128.218C306.418 128.472 306.77 128.582 307.218 128.547C308.018 128.477 308.752 128.2 309.421 127.716C310.089 127.199 310.517 126.604 310.704 125.931C310.86 125.29 310.936 124.681 310.932 124.105C310.924 122.889 310.66 121.755 310.141 120.703C309.622 119.65 309.025 118.966 308.351 118.651ZM306.556 115.927C306.684 115.926 306.86 115.925 307.084 115.923C307.34 115.89 307.516 115.872 307.612 115.872C307.74 115.871 307.884 115.886 308.044 115.917C308.204 115.916 308.3 115.915 308.332 115.915C309.421 116.099 310.466 116.844 311.467 118.149C312.468 119.423 313.086 120.842 313.32 122.409C313.387 122.856 313.421 123.128 313.422 123.224C313.422 123.288 313.361 123.641 313.237 124.281C312.958 125.595 312.343 126.96 311.393 128.374C310.443 129.789 309.521 130.707 308.628 131.129C308.213 131.324 307.622 131.424 306.854 131.429C306.054 131.435 305.461 131.343 305.076 131.153C304.177 130.775 303.517 130.156 303.095 129.295C302.381 127.796 302.014 125.558 301.993 122.582C301.988 121.846 302.001 121.302 302.03 120.95C302.119 119.829 302.241 119.028 302.398 118.547C302.586 118.034 302.887 117.568 303.3 117.149C304.063 116.44 305.149 116.032 306.556 115.927ZM329.613 127.002C328.682 126.592 327.801 126.39 326.969 126.396C326.521 126.399 325.946 126.483 325.243 126.648C324.827 126.746 324.22 126.847 323.421 126.948C322.173 127.053 321.553 127.553 321.559 128.449C321.56 128.577 321.594 128.833 321.66 129.216L321.858 130.079C321.986 130.078 323.505 129.844 326.413 129.376C329.354 128.908 330.841 128.657 330.872 128.625C330.904 128.593 330.919 128.401 330.916 128.049L330.961 127.521L329.613 127.002ZM322.811 114.952C323.611 114.914 324.73 114.843 326.169 114.737C327.641 114.631 328.712 114.576 329.384 114.571C329.48 114.57 329.609 114.698 329.771 114.952C329.901 115.208 329.918 115.367 329.822 115.432C329.822 115.432 329.791 115.464 329.727 115.529C329.663 115.593 329.313 115.788 328.675 116.112C328.165 116.371 327.494 116.504 326.662 116.51C325.862 116.515 324.838 116.618 323.592 116.819C322.345 116.987 321.45 117.169 320.907 117.365L320.818 118.374C320.819 118.47 320.804 118.63 320.773 118.854C320.775 119.046 320.776 119.206 320.777 119.334C320.79 121.222 320.944 122.709 321.239 123.795C321.272 123.923 321.305 124.098 321.339 124.322C321.404 124.514 321.453 124.657 321.486 124.753L321.535 124.945C321.697 125.232 322.498 125.37 323.938 125.36C324.834 125.354 325.585 125.253 326.192 125.057C326.958 124.828 327.678 124.711 328.35 124.706C329.022 124.702 329.55 124.794 329.936 124.984C331.637 125.74 332.496 127.334 332.512 129.766C332.516 130.278 332.438 130.567 332.278 130.632C331.704 130.924 330.458 131.172 328.539 131.377C326.3 131.552 323.853 131.649 321.197 131.667L320.333 131.625C320.327 130.825 319.804 126.877 318.764 119.78C318.529 118.149 318.41 117.126 318.407 116.71C318.402 115.942 318.622 115.477 319.069 115.313C319.548 115.118 320.587 114.999 322.187 114.956C322.443 114.954 322.651 114.953 322.811 114.952ZM343.975 118.408C343.718 118.281 343.382 118.22 342.966 118.222C342.198 118.228 341.607 118.408 341.193 118.763C340.907 118.989 340.733 119.278 340.671 119.63C340.609 119.951 340.566 120.671 340.542 121.791L340.547 122.511C340.566 125.327 340.978 127.148 341.784 127.975C342.042 128.229 342.395 128.339 342.842 128.304C343.642 128.234 344.376 127.957 345.045 127.472C345.713 126.956 346.141 126.361 346.329 125.688C346.484 125.047 346.56 124.438 346.556 123.862C346.548 122.646 346.284 121.512 345.765 120.459C345.246 119.407 344.649 118.723 343.975 118.408ZM342.18 115.684C342.308 115.683 342.484 115.682 342.708 115.68C342.964 115.646 343.14 115.629 343.236 115.629C343.364 115.628 343.508 115.643 343.668 115.674C343.828 115.672 343.924 115.672 343.956 115.672C345.045 115.856 346.091 116.601 347.091 117.906C348.092 119.179 348.71 120.599 348.945 122.166C349.012 122.613 349.046 122.885 349.046 122.981C349.047 123.045 348.985 123.397 348.861 124.038C348.582 125.352 347.968 126.717 347.017 128.131C346.067 129.546 345.145 130.464 344.252 130.886C343.837 131.081 343.246 131.181 342.478 131.186C341.678 131.192 341.085 131.1 340.7 130.91C339.801 130.532 339.141 129.913 338.719 129.052C338.005 127.553 337.638 125.315 337.618 122.339C337.612 121.603 337.625 121.059 337.654 120.707C337.743 119.586 337.865 118.785 338.022 118.304C338.21 117.791 338.511 117.325 338.924 116.906C339.688 116.197 340.773 115.789 342.18 115.684ZM370.736 116.497C370.478 116.243 369.933 116.118 369.101 116.124C368.237 116.13 367.358 116.232 366.463 116.43C365.473 116.661 364.337 116.797 363.058 116.837C361.554 116.88 360.435 116.967 359.699 117.1C358.996 117.201 358.453 117.381 358.071 117.639C357.721 117.898 357.436 118.316 357.216 118.893C357.09 119.214 357.077 119.614 357.176 120.094C357.176 120.19 357.194 120.365 357.227 120.621C357.261 120.877 357.295 121.181 357.33 121.532C357.364 121.884 357.398 122.188 357.432 122.444C357.535 123.531 357.716 124.186 357.973 124.408C358.199 124.599 358.455 124.693 358.743 124.691C358.935 124.69 359.175 124.64 359.462 124.542C359.718 124.444 360.277 124.296 361.139 124.099C361.938 123.933 362.626 123.848 363.202 123.844C364.257 123.837 365.427 124.005 366.709 124.349C368.055 124.659 369 124.813 369.544 124.809C370.536 124.802 371.445 124.396 372.272 123.591C372.781 123.107 373.257 122.496 373.7 121.757C374.174 120.986 374.426 120.392 374.455 119.976L374.453 119.688C374.448 118.92 374.172 118.281 373.624 117.773C373.077 117.265 372.419 116.949 371.65 116.827C371.201 116.766 370.897 116.656 370.736 116.497ZM363.614 114.001C365.981 113.729 367.596 113.59 368.46 113.584C369.836 113.575 371.181 113.742 372.495 114.085C373.681 114.397 374.532 114.775 375.047 115.219C376.013 116.077 376.501 117.258 376.511 118.762C376.519 119.914 376.255 121.035 375.718 122.127C375.403 122.801 374.88 123.525 374.149 124.298C373.418 125.039 372.686 125.588 371.952 125.945C370.358 126.756 368.665 127.199 366.873 127.276C366.169 127.28 365.496 127.125 364.854 126.809C364.179 126.462 363.618 126.29 363.17 126.293C362.818 126.295 362.403 126.362 361.924 126.493C361.412 126.625 360.917 126.692 360.437 126.695C359.989 126.698 359.524 126.606 359.043 126.417C358.658 126.292 358.434 126.229 358.37 126.23C357.922 126.233 357.574 126.827 357.326 128.013C357.139 128.782 357.051 130.015 357.063 131.711C357.067 132.287 357.145 134.302 357.296 137.757C357.373 139.549 357.412 140.588 357.414 140.876C357.423 142.188 357.285 143.101 357 143.615C356.78 144.097 356.397 144.339 355.853 144.343C355.565 144.345 355.293 144.251 355.035 144.061C354.842 143.87 354.744 143.567 354.741 143.151C354.738 142.735 354.871 141.134 355.14 138.348C355.56 134.249 355.764 131.239 355.751 129.319C355.748 128.935 355.731 128.712 355.698 128.648C355.632 128.36 355.564 127.817 355.495 127.017C355.425 126.186 355.241 124.971 354.942 123.373C354.344 120.209 354.041 117.875 354.03 116.371C354.025 115.635 354.102 115.106 354.259 114.785C354.544 114.271 355.07 114.012 355.838 114.006C356.062 114.005 356.559 114.066 357.327 114.188C358.096 114.311 358.785 114.37 359.393 114.366C360.353 114.36 361.76 114.238 363.614 114.001ZM388.036 118.107C387.779 117.981 387.443 117.919 387.027 117.922C386.259 117.927 385.668 118.107 385.255 118.462C384.968 118.688 384.794 118.977 384.733 119.329C384.671 119.65 384.628 120.37 384.603 121.49L384.608 122.21C384.627 125.026 385.04 126.848 385.846 127.674C386.103 127.928 386.456 128.038 386.904 128.003C387.703 127.933 388.437 127.656 389.106 127.172C389.775 126.655 390.203 126.06 390.39 125.387C390.546 124.746 390.622 124.137 390.618 123.561C390.609 122.345 390.346 121.211 389.826 120.159C389.307 119.106 388.71 118.422 388.036 118.107ZM386.242 115.383C386.37 115.382 386.546 115.381 386.77 115.379C387.025 115.346 387.201 115.328 387.297 115.328C387.425 115.327 387.569 115.342 387.73 115.373C387.89 115.372 387.986 115.371 388.018 115.371C389.107 115.555 390.152 116.3 391.153 117.606C392.154 118.879 392.771 120.299 393.006 121.865C393.073 122.313 393.107 122.584 393.108 122.68C393.108 122.744 393.046 123.097 392.923 123.738C392.644 125.052 392.029 126.416 391.079 127.83C390.128 129.245 389.207 130.163 388.313 130.585C387.899 130.78 387.307 130.88 386.539 130.885C385.74 130.891 385.147 130.799 384.762 130.61C383.863 130.232 383.203 129.612 382.781 128.751C382.067 127.252 381.699 125.014 381.679 122.038C381.674 121.302 381.686 120.758 381.716 120.406C381.804 119.285 381.927 118.485 382.083 118.003C382.272 117.49 382.573 117.024 382.986 116.605C383.749 115.896 384.834 115.489 386.242 115.383ZM398.321 114.485C398.383 114.228 398.59 114.099 398.942 114.096C399.454 114.093 401.743 114.205 405.809 114.433C409.874 114.63 411.923 114.744 411.955 114.776C411.987 114.807 412.037 114.999 412.103 115.351L412.203 115.878L411.15 116.365C410.512 116.657 409.857 116.854 409.186 116.955C408.259 117.089 407.653 117.333 407.367 117.687C407.081 118.041 406.941 118.602 406.946 119.37C406.948 119.562 406.984 120.138 407.054 121.097C407.157 122.088 407.215 123.512 407.227 125.368L407.244 127.816L406.822 129.211C406.54 130.205 406.256 130.703 405.968 130.705C405.936 130.705 405.76 130.674 405.439 130.612C405.215 130.55 405.069 130.295 405.002 129.847C404.798 128.025 404.651 125.338 404.563 121.786C404.549 119.706 404.444 118.475 404.25 118.092C403.763 117.136 402.735 116.583 401.166 116.433C400.558 116.341 399.916 116.154 399.242 115.87C398.825 115.681 398.552 115.555 398.424 115.492C398.295 115.397 398.23 115.253 398.229 115.061C398.228 114.997 398.259 114.805 398.321 114.485ZM427.002 115.537C427.13 115.408 427.32 115.231 427.575 115.005C427.829 114.747 428.02 114.57 428.147 114.473C428.566 114.95 428.825 115.284 428.922 115.476C429.214 116.018 429.627 120.319 430.162 128.38C430.197 128.827 430.217 129.339 430.221 129.915C430.224 130.395 430.162 130.764 430.036 131.021C429.942 131.245 429.672 131.631 429.228 132.178C428.752 132.757 428.498 132.983 428.465 132.855C428.432 132.792 428.204 132.105 427.779 130.796C427.288 129.231 426.848 128.13 426.46 127.493C426.103 126.823 425.685 126.442 425.204 126.349L424.868 126.352C424.612 126.353 424.004 126.39 423.045 126.46L421.318 126.664C421.162 127.209 421.024 128.042 420.903 129.163C420.846 130.219 420.739 130.94 420.582 131.325C420.425 131.71 420.091 132.016 419.58 132.244C419.166 132.439 418.862 132.537 418.67 132.538C418.478 132.539 418.318 132.477 418.189 132.349C417.996 132.159 417.745 128.288 417.438 120.738L417.267 116.851L417.599 116.225C417.979 115.582 418.184 115.229 418.216 115.165L418.597 114.73L418.989 115.928C419.218 116.63 419.384 117.621 419.489 118.9C419.632 121.011 419.946 122.513 420.432 123.406C420.918 124.267 421.689 124.693 422.745 124.686C423.033 124.684 423.257 124.667 423.416 124.634C424.823 124.432 425.794 123.753 426.331 122.598C426.551 122.116 426.748 120.483 426.921 117.697L427.002 115.537ZM444.736 117.96C444.576 117.929 444.288 117.915 443.872 117.918C442.944 117.924 441.905 118.075 440.755 118.371C439.605 118.667 438.918 118.944 438.696 119.201C438.315 119.588 438.128 120.309 438.135 121.365C438.138 121.813 438.204 122.117 438.333 122.276C438.462 122.403 438.847 122.544 439.488 122.7C439.873 122.793 440.433 122.837 441.169 122.832C442.225 122.825 443.616 122.72 445.343 122.516C445.599 122.482 445.871 122.448 446.158 122.414C446.446 122.38 446.67 122.363 446.83 122.362L447.07 122.312C447.102 122.312 447.229 122.151 447.45 121.829L447.783 121.347L447.007 120.104C446.198 118.798 445.441 118.083 444.736 117.96ZM439.538 115.979C440.113 115.847 440.865 115.778 441.793 115.772C442.945 115.764 443.889 115.838 444.626 115.993C445.556 116.178 446.294 116.461 446.84 116.842C447.419 117.222 447.967 117.794 448.484 118.558C448.937 119.259 449.165 119.866 449.168 120.378C449.17 120.57 449.155 120.714 449.123 120.81C448.906 121.74 447.905 122.802 446.121 123.999C445.293 124.516 444.126 124.78 442.622 124.791C441.886 124.796 441.2 124.96 440.562 125.285C439.956 125.577 439.653 125.771 439.654 125.867C439.655 126.027 439.753 126.378 439.949 126.921C440.177 127.463 440.355 127.782 440.483 127.877C440.709 128.068 441.574 128.27 443.08 128.483C444.585 128.697 445.962 128.8 447.21 128.791L447.738 128.788L448.602 128.782C448.954 128.779 449.162 128.826 449.227 128.922C449.291 128.985 449.325 129.193 449.327 129.545L449.33 130.025L444.482 130.01C441.218 130 439.409 129.917 439.056 129.759C438.061 129.318 437.175 128.396 436.397 126.993C435.62 125.59 435.226 124.217 435.217 122.873C435.206 121.273 435.612 119.814 436.435 118.497C437.29 117.147 438.324 116.308 439.538 115.979ZM467.914 113.914C468.201 113.816 468.409 113.766 468.537 113.765C468.633 113.765 468.892 114.179 469.313 115.008C469.67 115.742 469.915 116.412 470.047 117.019C470.211 117.626 470.445 119.033 470.748 121.238C471.15 123.892 471.385 125.442 471.452 125.89C471.584 126.497 471.651 127.008 471.654 127.424C471.657 127.904 471.548 128.305 471.326 128.627C471.2 128.82 470.945 129.029 470.563 129.256C470.18 129.483 469.893 129.597 469.701 129.598L469.605 129.598C469.573 129.567 469.232 128.833 468.582 127.397C467.932 125.962 467.607 125.212 467.606 125.148C467.606 125.116 466.906 125.665 465.506 126.794C463.087 128.827 461.527 130.006 460.826 130.33C459.263 131.045 458.097 131.405 457.329 131.41C456.977 131.413 456.672 131.335 456.415 131.177C455.934 130.924 455.593 130.286 455.394 129.263C455.263 128.72 455.042 126.834 454.732 123.604C454.454 120.374 454.312 118.327 454.306 117.463C454.301 116.791 454.473 116.117 454.82 115.443L455.39 114.527C455.454 114.591 455.68 114.893 456.068 115.435C456.456 116.008 456.701 116.71 456.802 117.542C457.107 119.94 457.348 122.546 457.528 125.361C457.598 126.32 457.699 126.992 457.829 127.375C457.96 127.726 458.202 127.98 458.555 128.138C458.747 128.233 458.988 128.279 459.276 128.277C460.14 128.271 461.463 127.574 463.245 126.186C465.219 124.636 466.502 122.755 467.095 120.543C467.251 119.934 467.339 118.734 467.358 116.942L467.435 114.061L467.914 113.914ZM468.922 99.9384C469.528 99.5503 469.879 99.3559 469.975 99.3553C470.007 99.355 470.023 99.3709 470.023 99.4029C470.023 99.4669 469.422 100.511 468.22 102.535C466.923 104.72 465.703 106.505 464.561 107.888C464.084 108.436 463.528 109.031 462.893 109.676C462.257 110.32 461.891 110.643 461.795 110.643C461.699 110.644 461.682 110.468 461.744 110.116C461.957 108.578 462.809 106.764 464.299 104.674C465.788 102.552 467.329 100.973 468.922 99.9384Z" fill="white"/>
</svg>
