<svg width="82" height="189" viewBox="0 0 82 189" fill="none" xmlns="http://www.w3.org/2000/svg">
<path d="M54.9984 168.4C55.8433 167.269 57.5343 165.946 60.0714 164.43C64.0178 162.071 67.0491 161.041 69.1651 161.341C72.1276 161.761 75.2339 164.598 78.4841 169.851C81.169 174.191 82.0191 177.438 81.0343 179.591C79.9089 182.141 77.9368 184.258 75.1179 185.943C70.0438 188.975 65.6016 189.597 61.7913 187.806C60.0978 186.941 58.5444 185.367 57.1313 183.082C53.0332 176.458 52.3223 171.564 54.9984 168.4ZM0.858318 5.98825C1.98442 4.0637 3.2522 2.68023 4.66165 1.83786C7.19868 0.321591 9.73681 -0.256693 12.276 0.103009C14.9558 0.0658133 16.861 0.960922 17.9915 2.78833C20.6764 7.12841 33.0604 43.3741 55.1433 111.525C60.6655 129.814 62.5809 139.464 60.8895 140.474C59.762 141.148 57.7872 141.077 54.9654 140.26C52.003 139.841 49.1789 137.148 46.4932 132.183C44.0895 127.049 35.8845 106.296 21.8784 69.9251C7.73104 33.3253 0.585595 13.9733 0.44208 11.8689C-0.265954 9.4761 -0.127212 7.51589 0.858318 5.98825Z" fill="white"/>
</svg>
