<svg width="50" height="155" viewBox="0 0 50 155" fill="none" xmlns="http://www.w3.org/2000/svg">
<path d="M4.83005 134.718C5.93131 134.276 7.72775 134.038 10.2194 134.003C14.0952 133.949 16.7329 134.447 18.1325 135.495C20.0918 136.963 21.1067 140.152 21.1772 145.063C21.2354 149.12 20.4416 151.693 18.7958 152.784C16.8763 154.092 14.5323 154.765 11.7638 154.803C6.78056 154.872 3.30008 153.533 1.32234 150.784C0.473421 149.514 0.0336497 147.812 0.0030221 145.677C-0.085798 139.485 1.52321 135.832 4.83005 134.718ZM36.145 1.3454C37.7939 0.468319 39.3104 0.0201858 40.6946 0.00100311C43.1862 -0.0335258 45.2718 0.578242 46.9512 1.8363C48.9045 2.87702 49.8933 4.25143 49.9178 5.95955C49.976 10.0163 43.2053 39.9013 29.6056 95.6145C25.6642 110.405 22.863 117.811 21.2019 117.834C20.0945 117.849 18.6981 117.015 17.0125 115.329C15.0531 113.862 14.1797 110.884 14.3922 106.396C14.8816 101.905 17.9526 84.3507 23.6053 53.7338C29.2548 22.9033 32.4842 6.73504 33.2933 5.22893C33.8194 3.29962 34.77 2.00511 36.145 1.3454Z" fill="white"/>
</svg>
