<svg width="121" height="119" viewBox="0 0 121 119" fill="none" xmlns="http://www.w3.org/2000/svg">
<path d="M97.7503 107.083C97.9612 105.933 98.7201 104.315 100.027 102.229C102.06 98.9852 103.902 97.064 105.553 96.4654C107.864 95.6273 111.147 96.4962 115.401 99.0719C118.916 101.2 120.7 103.239 120.754 105.189C120.847 107.483 120.168 109.788 118.716 112.105C116.102 116.276 113.084 118.445 109.663 118.611C108.118 118.634 106.42 118.086 104.57 116.966C99.2061 113.718 96.9327 110.424 97.7503 107.083ZM0.0273166 9.56516C0.15865 7.72695 0.587334 6.22857 1.31337 5.07002C2.62023 2.98463 4.26421 1.58278 6.24531 0.864455C8.18663 -0.197566 9.8972 -0.280617 11.377 0.615297C14.8916 2.74309 36.9204 24.39 77.4635 65.556C88.0488 76.7589 92.9058 83.0555 92.0346 84.4458C91.4537 85.3726 89.9878 86.0832 87.6367 86.5775C85.3255 87.4156 82.3002 86.5428 78.5609 83.9594C74.9668 81.1442 61.5412 69.1806 38.2841 48.0685C14.8421 26.8445 2.69143 15.493 1.83221 14.0139C0.457838 12.5426 -0.143797 11.0597 0.0273166 9.56516Z" fill="white"/>
</svg>
