<svg width="1920" height="817" viewBox="0 0 1920 817" fill="none" xmlns="http://www.w3.org/2000/svg">
<path d="M-36.3652 264.435L84.6673 0L214.397 264.435H125.253L233.602 470.824H125.253L276 690.698H125.253V815H35.747V690.698H-115L35.747 470.824H-72.6024L35.747 264.435H-36.3652Z" fill="white"/>
<path d="M197.691 416.432L278.792 225L365.721 416.432H305.988L378.59 565.842H305.988L407 725.014H305.988V815H246.012V725.014H145L246.012 565.842H173.41L246.012 416.432H197.691Z" fill="white"/>
<path d="M394.172 579.237L442.152 466L493.579 579.237H458.241L501.193 667.617H458.241L518 761.771H458.241V815H422.759V761.771H363L422.759 667.617H379.807L422.759 579.237H394.172Z" fill="white"/>
<path d="M1450.17 581.237L1498.15 468L1549.58 581.237H1514.24L1557.19 669.617H1514.24L1574 763.771H1514.24V817H1478.76V763.771H1419L1478.76 669.617H1435.81L1478.76 581.237H1450.17Z" fill="white"/>
<path d="M1588.69 344.824L1669.79 119L1756.72 344.824H1696.99L1769.59 521.078H1696.99L1798 708.847H1696.99V815H1637.01V708.847H1536L1637.01 521.078H1564.41L1637.01 344.824H1588.69Z" fill="white"/>
<path d="M1760.63 264.435L1881.67 0L2011.4 264.435H1922.25L2030.6 470.824H1922.25L2073 690.698H1922.25V815H1832.75V690.698H1682L1832.75 470.824H1724.4L1832.75 264.435H1760.63Z" fill="white"/>
</svg>
